<?xml version="1.0" standalone="no"?>
<!DOCTYPE svg PUBLIC "-//W3C//DTD SVG 20010904//EN"
 "http://www.w3.org/TR/2001/REC-SVG-20010904/DTD/svg10.dtd">
<svg version="1.0" xmlns="http://www.w3.org/2000/svg"
 width="2000.000000pt" height="2000.000000pt" viewBox="0 0 2000.000000 2000.000000"
 preserveAspectRatio="xMidYMid meet">

<g transform="translate(0.000000,2000.000000) scale(0.100000,-0.100000)"
fill="#000000" stroke="none">
<path d="M9850 15314 c-795 -71 -1570 -302 -2267 -676 -68 -37 -123 -65 -123
-65 0 1 10 27 22 57 31 79 30 180 -1 243 -51 105 -135 157 -252 157 -61 0 -83
-5 -124 -26 -125 -65 -295 -224 -451 -420 -163 -205 -227 -338 -220 -458 4
-78 38 -143 91 -176 19 -12 35 -24 35 -27 0 -3 -19 -26 -41 -51 l-41 -47 5
-230 c10 -394 59 -722 193 -1275 31 -126 114 -417 163 -570 211 -660 506
-1245 873 -1728 63 -84 78 -110 78 -139 0 -69 62 -334 126 -538 49 -155 136
-362 173 -411 35 -46 40 -50 106 -62 90 -17 247 -4 474 38 l163 31 51 -35
c142 -94 320 -189 542 -292 132 -60 364 -133 541 -169 147 -30 206 -24 357 34
323 124 407 159 552 231 182 90 327 175 475 279 l103 73 118 -11 c247 -23 459
-9 524 33 69 45 158 343 220 740 16 107 28 156 43 176 115 154 264 411 382
655 269 556 441 1197 514 1920 48 470 49 1195 2 1620 -13 117 -13 132 2 160
10 19 15 54 15 96 -2 134 -83 266 -291 472 -189 188 -340 302 -464 349 -142
54 -314 -25 -358 -164 -7 -24 -17 -47 -20 -51 -4 -5 -59 7 -121 27 -404 124
-814 199 -1283 236 -180 14 -700 10 -886 -6z m700 -119 c433 -13 930 -98 1404
-241 207 -63 208 -63 245 -127 17 -30 38 -60 46 -67 8 -7 15 -16 15 -21 0 -4
-44 -31 -97 -59 -54 -28 -143 -84 -198 -125 -55 -41 -104 -75 -110 -75 -5 0
-50 13 -100 29 -289 93 -583 156 -915 196 -129 15 -570 37 -607 30 -10 -2
-105 -6 -211 -9 l-193 -6 7 232 c4 128 8 234 9 236 4 4 438 18 490 15 28 -1
124 -5 215 -8z m-751 -138 c-1 -62 -4 -164 -8 -227 l-6 -115 -60 -7 c-194 -24
-459 -73 -580 -107 -39 -11 -81 -22 -95 -25 -60 -13 -266 -77 -380 -119 -200
-73 -266 -101 -518 -224 l-153 -74 -62 49 c-64 50 -197 139 -222 149 -8 3 -12
10 -9 15 4 6 1 9 -7 6 -8 -3 -31 6 -51 19 -21 12 -42 23 -48 23 -6 0 -8 4 -5
10 4 6 -1 7 -11 3 -11 -4 -15 -2 -11 4 4 6 1 11 -6 10 -52 -2 -37 11 93 83
322 177 729 343 1105 449 61 17 133 38 160 46 119 36 443 99 640 125 176 23
217 27 228 22 4 -2 6 -54 6 -115z m701 -437 c250 -14 510 -48 728 -95 178 -37
522 -132 522 -144 0 -3 -28 -35 -61 -71 -53 -57 -136 -154 -172 -200 -61 -79
-163 -259 -197 -350 -7 -19 -17 -39 -21 -43 -4 -5 -56 24 -115 64 -297 199
-686 388 -987 480 l-108 33 -21 -22 c-21 -20 -21 -23 -6 -54 27 -56 139 -206
228 -307 46 -53 196 -208 333 -344 137 -137 245 -252 241 -257 -5 -4 -72 -63
-149 -130 -218 -191 -361 -322 -611 -558 l-162 -152 -43 36 -44 37 -6 161 c-4
88 -10 551 -15 1028 -7 797 -6 868 9 874 49 19 438 27 657 14z m-713 -312 c-5
-262 8 -1604 17 -1685 2 -18 2 -33 0 -33 -15 0 -152 115 -147 123 3 6 1 7 -5
3 -15 -9 -215 142 -206 156 4 7 3 8 -4 4 -15 -9 -164 103 -155 117 3 6 1 7 -6
3 -14 -9 -43 12 -35 25 3 5 -1 6 -8 4 -8 -3 -34 10 -58 28 -25 19 -74 55 -110
82 -36 26 -64 51 -63 56 2 5 -3 6 -10 4 -6 -3 -22 3 -35 13 l-24 18 34 39 c18
22 45 52 59 67 15 15 29 34 33 43 3 9 11 13 17 9 7 -4 9 -3 5 4 -3 6 2 17 12
24 11 7 21 18 23 23 2 6 8 9 14 7 5 -2 7 0 2 4 -10 10 23 45 36 37 6 -4 7 -1
3 6 -9 14 22 53 35 45 5 -3 6 1 3 9 -7 18 21 41 38 31 10 -6 9 -3 -1 9 -9 11
-10 17 -2 18 26 3 30 4 38 13 5 5 3 6 -4 2 -24 -14 -13 6 46 77 32 40 71 91
87 113 16 23 50 70 75 105 25 36 60 90 79 121 19 31 38 54 44 51 5 -3 6 -2 3
4 -6 10 27 86 35 78 2 -2 4 4 4 13 0 9 4 27 8 39 5 17 1 26 -19 39 -25 16 -29
16 -91 -10 -36 -14 -71 -23 -77 -20 -7 4 -8 3 -4 -2 10 -11 -91 -56 -107 -47
-6 3 -8 3 -4 -2 10 -10 -140 -87 -153 -79 -5 3 -8 1 -7 -6 2 -6 -26 -26 -62
-46 -36 -19 -76 -42 -89 -51 -13 -8 -20 -10 -17 -4 4 7 1 9 -8 5 -9 -3 -14
-11 -13 -17 1 -7 -6 -11 -15 -9 -9 1 -20 -3 -24 -9 -5 -8 -3 -9 6 -4 9 5 11 4
6 -3 -4 -7 -12 -12 -17 -12 -5 0 -23 -10 -38 -21 -17 -13 -34 -18 -42 -14 -7
5 -10 4 -6 -2 4 -6 -42 -46 -101 -89 -59 -43 -153 -116 -209 -161 -95 -76
-103 -80 -110 -60 -4 12 -6 25 -5 30 1 4 -3 7 -8 7 -6 0 -15 12 -20 26 -6 15
-20 39 -31 55 -11 16 -17 34 -14 39 4 6 3 9 -2 8 -4 -2 -10 2 -12 7 -2 6 -9
15 -16 20 -37 33 -84 105 -79 122 4 12 3 14 -3 6 -11 -15 -128 101 -118 117 3
5 0 8 -7 5 -7 -2 -21 6 -31 20 -17 23 -16 24 8 37 323 172 776 338 1120 413
44 9 105 23 135 30 64 15 224 41 325 54 39 5 74 9 79 10 5 0 7 -120 3 -291z
m2487 208 c-12 -9 -23 -11 -28 -5 -6 5 -3 14 10 23 12 9 23 11 28 5 6 -5 3
-14 -10 -23z m-59 -35 c3 -5 -20 -34 -52 -63 -31 -29 -66 -62 -76 -72 -19 -18
-20 -18 -34 -1 -7 11 -13 22 -13 26 0 9 149 119 161 119 4 0 10 -4 14 -9z
m-185 -179 c0 -10 -82 -110 -165 -200 -10 -12 -19 -10 -49 10 -19 12 -34 28
-33 33 2 6 52 54 112 107 98 87 110 95 121 80 8 -9 14 -23 14 -30z m-4606 2
c38 -13 45 -19 35 -30 -6 -8 -16 -14 -22 -14 -14 0 -77 43 -77 53 0 10 11 9
64 -9z m5352 -29 c87 -53 151 -68 255 -63 l86 5 7 -106 c40 -639 43 -772 26
-1106 -47 -902 -216 -1631 -528 -2286 -57 -121 -205 -388 -255 -462 -28 -42
-32 -38 -43 45 -7 49 -13 58 -101 149 -51 53 -93 101 -93 107 0 6 14 35 31 64
157 266 308 640 404 1004 31 114 95 404 95 426 0 5 21 -2 48 -15 46 -24 70
-25 84 -3 12 18 -2 56 -53 148 l-49 87 10 73 c53 394 57 1039 9 1500 -14 135
-26 196 -48 241 l-19 38 34 82 c18 45 34 88 34 95 0 17 0 17 66 -23z m-5180
-47 c46 -23 84 -46 84 -52 -1 -6 -9 -26 -18 -44 l-18 -33 -74 56 c-41 31 -79
60 -83 64 -9 9 8 51 19 51 3 0 44 -19 90 -42z m2617 -53 c8 -8 17 -12 20 -9 8
9 67 -25 64 -37 -1 -7 4 -14 12 -17 10 -3 11 0 5 9 -6 12 -5 12 8 1 9 -7 20
-12 24 -11 25 4 38 -1 27 -12 -8 -8 -17 -8 -34 1 -23 12 -23 11 -7 -6 14 -14
22 -15 40 -7 18 8 31 7 58 -7 19 -10 48 -23 64 -29 16 -7 26 -15 22 -18 -3 -4
-12 -1 -18 5 -7 7 -19 12 -27 12 -9 0 -3 -7 13 -15 15 -8 32 -13 36 -10 12 7
182 -79 174 -88 -4 -4 -17 -7 -28 -6 -18 0 -19 1 -4 7 15 6 12 10 -15 20 -17
7 -40 18 -50 23 -23 13 -56 -16 -38 -34 8 -8 11 -8 11 2 0 8 12 11 38 9 23 -2
36 -8 34 -16 -3 -18 26 -26 53 -14 20 10 33 5 91 -34 38 -24 74 -44 81 -44 7
0 13 -5 13 -10 0 -7 -6 -7 -19 0 -24 12 -34 13 -27 1 4 -5 0 -11 -6 -14 -7 -2
0 -8 16 -12 22 -6 32 -4 39 7 8 13 20 9 76 -22 105 -58 172 -102 166 -108 -3
-3 -19 4 -35 16 -16 12 -35 22 -42 21 -9 0 -8 -2 2 -6 8 -4 21 -13 30 -21 13
-14 13 -15 -8 -10 -12 3 -20 2 -17 -3 3 -4 25 -7 48 -5 23 2 48 -1 55 -6 7 -6
27 -18 44 -28 40 -21 45 -34 16 -48 -13 -6 -17 -11 -9 -11 8 -1 23 6 33 16 11
9 18 11 18 5 0 -7 3 -11 8 -10 4 1 30 -15 59 -35 46 -34 51 -41 41 -57 -10
-15 -9 -23 6 -38 13 -15 14 -21 4 -24 -7 -3 5 -4 27 -3 22 1 46 -3 53 -8 7 -5
15 -8 18 -5 3 3 -14 20 -37 37 -31 22 -45 28 -50 19 -5 -7 -11 -9 -14 -6 -4 4
-1 13 6 21 12 12 21 8 66 -26 29 -21 53 -43 53 -46 0 -4 16 -15 35 -24 20 -9
38 -24 41 -32 4 -8 13 -15 22 -15 8 0 12 -3 9 -7 -4 -3 3 -11 15 -17 11 -6 26
-20 32 -31 6 -11 15 -23 19 -26 5 -3 9 -20 9 -37 1 -18 4 -32 8 -32 4 0 11
-30 15 -66 5 -49 4 -69 -6 -74 -6 -5 -9 -15 -6 -23 13 -36 -55 -87 -117 -87
-49 0 -166 28 -195 47 -49 32 -271 226 -270 237 0 6 3 6 6 -1 2 -7 10 -13 17
-13 7 0 23 -14 36 -32 20 -28 24 -29 35 -15 10 15 14 15 33 1 12 -8 22 -11 22
-5 0 17 -35 31 -64 25 -17 -3 -26 0 -26 8 0 17 -56 49 -74 42 -7 -3 -19 2 -26
11 -11 13 -10 19 6 38 l19 22 -22 -19 c-22 -19 -24 -19 -44 -1 l-20 19 21 16
22 16 -26 17 c-34 23 -47 21 -17 -2 24 -18 24 -19 4 -29 -17 -9 -24 -5 -52 29
-19 23 -38 36 -44 32 -7 -4 -6 1 2 10 13 17 37 24 27 9 -2 -4 -1 -14 3 -21 6
-9 9 -5 9 12 0 18 -14 39 -42 64 -22 21 -42 37 -44 35 -2 -2 -10 5 -19 15 -8
10 -12 13 -9 6 4 -6 2 -14 -3 -18 -6 -3 -8 -13 -5 -23 4 -9 -17 7 -45 37 -28
30 -49 56 -46 60 4 3 11 -2 16 -12 6 -9 15 -17 21 -17 6 0 3 9 -6 19 -10 10
-13 21 -8 22 6 2 -6 22 -25 44 -19 22 -31 32 -28 22 9 -21 -8 -22 -25 -2 -7 9
-21 13 -30 10 -12 -4 -28 8 -52 40 -19 24 -38 41 -42 37 -4 -4 -6 0 -4 8 2 8
-3 14 -9 13 -17 -4 -47 43 -37 58 4 7 3 9 -2 6 -6 -3 -16 -2 -24 4 -13 7 -12
9 3 9 11 0 17 8 17 22 0 22 0 22 17 -2 20 -28 23 -42 10 -51 -4 -3 -1 -11 7
-18 11 -9 16 -9 22 0 4 8 3 9 -4 5 -7 -4 -12 -2 -12 4 0 6 7 13 15 16 11 5 10
10 -6 27 -12 12 -33 38 -47 57 -32 44 -80 90 -93 90 -5 0 1 -10 12 -21 17 -17
19 -23 8 -30 -11 -6 -9 -13 10 -33 13 -14 20 -30 16 -38 -3 -7 0 -5 8 5 15 18
34 7 22 -13 -11 -17 -32 -11 -48 14 -9 13 -27 35 -39 49 -103 112 -181 207
-175 213 3 3 10 -1 16 -8 48 -59 60 -72 61 -62 0 6 -7 17 -15 24 -8 7 -15 18
-15 26 0 12 -30 27 -56 28 -14 1 -49 36 -35 36 5 0 16 -7 24 -15z m-2397 -86
c28 -21 73 -58 100 -82 l49 -45 -35 -31 c-19 -17 -39 -31 -44 -31 -7 0 -94 74
-189 160 -16 15 -16 18 -1 57 l17 42 26 -17 c14 -9 49 -33 77 -53z m1682 17
c-62 -85 -73 -101 -71 -108 1 -3 -10 -20 -26 -37 -16 -17 -27 -31 -25 -31 3 0
-14 -24 -36 -52 -22 -29 -53 -71 -69 -93 -102 -136 -112 -147 -128 -133 -15
12 -15 11 -4 -11 8 -15 9 -21 2 -17 -6 4 -11 2 -11 -5 0 -7 -21 -40 -47 -73
-26 -34 -48 -63 -50 -65 -1 -2 -9 2 -18 9 -9 7 -15 8 -15 2 0 -6 6 -12 13 -15
8 -3 5 -12 -12 -30 -21 -23 -59 -28 -45 -6 3 5 -2 6 -11 3 -13 -5 -12 -9 5
-24 13 -11 17 -21 10 -25 -5 -3 -10 -2 -10 3 0 6 -7 12 -15 16 -13 4 -13 2 -5
-14 11 -20 4 -50 -12 -50 -5 0 -7 8 -4 18 3 9 1 24 -5 32 -9 13 -10 12 -5 -2
7 -22 -2 -48 -16 -48 -6 0 -7 7 -4 16 3 8 2 12 -4 9 -6 -3 -10 -18 -10 -32 0
-25 0 -26 20 -8 11 10 20 14 20 8 0 -5 -9 -18 -21 -29 -17 -15 -22 -16 -29 -4
-5 8 -13 11 -17 6 -4 -5 -2 -11 5 -13 21 -8 13 -23 -45 -84 -42 -44 -59 -56
-69 -48 -8 7 -14 7 -19 -1 -4 -6 -1 -9 6 -8 23 6 18 -17 -7 -36 -22 -15 -28
-16 -35 -5 -5 8 -9 9 -9 3 0 -6 -7 -11 -15 -11 -8 0 -15 5 -15 10 0 6 -3 7 -6
4 -4 -4 -1 -13 5 -21 9 -11 9 -16 0 -21 -8 -6 -7 -10 2 -16 12 -8 11 -11 -1
-19 -8 -5 -12 -10 -9 -10 3 0 -14 -20 -37 -45 -23 -25 -48 -43 -55 -40 -16 5
-67 -30 -57 -40 3 -4 16 3 28 15 12 12 24 19 27 17 7 -8 -149 -160 -166 -162
-9 -1 -27 -7 -40 -14 -15 -8 -42 -11 -70 -8 -37 4 -51 12 -77 43 -18 21 -35
54 -38 73 -9 57 -7 131 5 153 9 16 8 19 -2 13 -8 -6 -10 -4 -4 5 4 7 9 30 11
52 4 41 34 84 42 60 3 -10 7 -10 18 -1 11 9 14 8 14 -4 0 -9 -8 -21 -17 -26
-10 -6 -13 -10 -8 -11 20 0 37 18 33 36 -2 12 -11 18 -22 16 -14 -3 -15 0 -8
15 16 30 65 68 70 54 3 -9 7 -9 18 0 11 9 14 8 14 -4 0 -9 -8 -21 -17 -26 -10
-6 -13 -10 -8 -11 20 0 37 18 33 36 -2 11 -11 18 -21 16 -11 -2 -15 2 -11 13
4 8 14 14 23 13 9 -2 15 2 14 8 -1 6 19 31 44 55 25 24 43 38 39 32 -5 -9 -2
-11 8 -7 8 3 13 11 11 17 -2 7 17 29 43 49 26 21 58 48 72 60 46 42 57 48 74
42 9 -3 14 -10 11 -14 -3 -5 -1 -11 4 -14 14 -9 22 23 11 42 -5 10 -10 12 -10
5 0 -7 -5 -13 -11 -13 -20 0 2 20 124 110 67 49 127 94 133 99 6 5 69 47 140
94 97 65 136 85 156 83 15 -2 25 1 22 6 -3 5 -13 7 -23 4 -11 -4 -11 -2 3 7
10 7 39 26 65 43 25 17 78 48 116 69 39 21 82 46 97 57 22 15 27 16 22 4 -3
-9 -1 -16 5 -16 10 0 15 14 12 33 0 4 6 7 14 7 8 0 15 5 15 12 0 6 3 9 6 5 3
-3 -9 -26 -28 -51z m2291 -34 l33 -28 -67 -94 c-37 -52 -68 -96 -70 -98 -2 -2
-26 13 -54 34 -57 43 -61 30 38 142 35 39 69 72 76 72 6 0 26 -13 44 -28z
m-4765 -93 c9 -22 14 -45 10 -50 -3 -5 -1 -8 4 -7 6 2 10 -1 10 -6 0 -5 4 -12
9 -15 6 -3 33 -43 62 -88 28 -44 58 -87 66 -93 8 -7 15 -18 15 -24 0 -6 -5 -4
-11 4 -9 13 -10 13 -6 0 2 -8 8 -15 13 -15 15 0 33 -15 45 -37 10 -18 9 -20
-5 -15 -10 4 -15 3 -12 -1 3 -5 -25 -39 -61 -76 l-66 -68 7 -163 c3 -90 11
-212 17 -272 5 -59 11 -126 12 -148 2 -22 6 -45 9 -50 3 -6 9 -32 13 -60 12
-84 33 -207 45 -260 7 -27 23 -102 36 -165 28 -129 28 -128 47 -190 14 -42 13
-47 -7 -75 -11 -16 -21 -32 -21 -35 0 -3 -4 -4 -8 -2 -5 1 -6 -2 -3 -7 7 -11
-43 -131 -54 -131 -4 0 -7 -6 -7 -14 0 -22 -25 -76 -32 -71 -6 3 -8 -71 -2
-97 5 -28 85 7 194 83 l27 20 11 -28 c6 -15 30 -84 54 -153 23 -69 46 -134 50
-145 80 -215 120 -307 220 -505 100 -199 119 -234 128 -238 4 -2 7 -8 7 -12 0
-11 101 -179 143 -237 17 -24 26 -46 22 -54 -5 -7 -4 -10 2 -6 6 4 16 1 22 -6
8 -10 6 -19 -7 -33 -10 -10 -35 -41 -56 -69 -21 -27 -43 -50 -49 -50 -7 -1
-11 -7 -9 -14 3 -15 -16 -41 -30 -41 -6 0 -8 7 -4 15 3 8 0 14 -6 12 -6 -1
-13 4 -16 12 -3 9 0 11 8 6 9 -6 11 -4 5 4 -5 9 -11 9 -17 3 -7 -7 -3 -21 13
-43 19 -27 20 -31 5 -26 -9 4 -15 3 -12 -1 4 -6 -41 -82 -58 -100 -2 -2 -43
54 -92 125 -48 70 -91 130 -96 131 -4 2 -8 8 -8 14 0 6 -31 62 -70 124 -38 63
-70 116 -70 118 0 2 -16 33 -36 68 -41 71 -140 267 -174 343 -12 28 -35 78
-51 111 -16 34 -45 104 -64 155 -20 52 -40 103 -45 114 -23 48 -165 468 -183
540 -3 11 -19 72 -37 135 -18 63 -38 144 -45 180 -7 36 -22 106 -33 155 -10
50 -27 133 -36 185 -9 52 -21 118 -27 145 -5 28 -16 100 -24 160 -9 61 -22
142 -30 181 -8 40 -17 96 -20 125 -5 58 -44 292 -74 454 -12 58 -16 101 -10
103 5 2 15 9 22 15 37 35 99 69 117 64 11 -3 18 -1 14 4 -3 5 11 10 30 10 42
2 41 2 81 18 17 7 38 14 47 16 21 5 57 24 44 25 -9 0 64 58 75 59 4 1 14 -17
23 -40z m5581 -284 c26 -314 30 -760 10 -1035 -9 -129 -18 -236 -20 -238 -1
-2 -28 33 -58 76 -148 211 -421 522 -605 690 -51 46 -92 88 -92 92 0 5 10 12
23 16 48 15 160 88 251 164 138 116 322 328 427 492 l34 53 7 -60 c4 -33 15
-145 23 -250z m-2119 233 c10 -12 13 -18 7 -14 -8 4 -13 2 -13 -5 0 -7 -7 -4
-15 7 -28 38 -11 48 21 12z m-2433 -55 c30 -32 67 -73 83 -92 l28 -33 -40 -34
-39 -33 -24 27 c-13 15 -48 53 -77 86 -30 32 -54 61 -54 64 0 6 61 72 66 72 2
0 27 -26 57 -57z m3507 0 c0 -5 21 -21 45 -38 25 -16 45 -35 45 -41 0 -16 -38
-62 -61 -74 -22 -13 -55 1 -81 34 -24 29 -22 45 7 89 24 34 45 48 45 30z
m-3339 -196 c28 -38 32 -66 15 -92 -24 -36 -56 -32 -90 12 l-30 36 39 34 c21
18 41 33 44 33 3 0 13 -11 22 -23z m2463 -23 c4 -10 14 -14 26 -11 15 4 20 0
20 -15 0 -14 5 -18 15 -14 8 3 15 1 15 -3 0 -5 -7 -12 -17 -15 -11 -5 -27 5
-50 30 -35 39 -38 44 -24 44 5 0 12 -7 15 -16z m-3358 -111 c-3 -8 -1 -11 4
-8 6 3 10 1 10 -5 0 -6 4 -9 8 -6 5 3 44 -31 88 -76 107 -109 252 -224 346
-273 20 -10 34 -23 31 -28 -3 -5 0 -7 8 -5 8 3 30 -3 49 -12 19 -10 50 -21 68
-25 17 -3 32 -10 32 -14 0 -5 -14 -24 -30 -42 -17 -19 -58 -66 -92 -106 -33
-40 -65 -71 -70 -70 -6 1 -13 -5 -15 -13 -4 -13 -3 -13 6 0 6 8 11 11 11 7 0
-5 -16 -29 -37 -53 -27 -34 -39 -42 -46 -32 -6 9 -7 8 -3 -5 7 -21 -30 -81
-44 -72 -5 3 -12 0 -16 -6 -4 -8 -3 -9 4 -5 20 12 13 -12 -7 -26 -10 -7 -19
-16 -20 -20 -6 -30 -14 -39 -22 -26 -7 10 -9 9 -9 -5 0 -9 -38 -74 -84 -145
-45 -70 -89 -138 -96 -151 -10 -20 -14 -22 -21 -9 -14 25 -109 588 -163 968
-2 14 -11 61 -20 105 -9 43 -12 82 -8 87 4 4 34 27 67 52 58 43 82 50 71 19z
m3542 -58 c-9 -17 -9 -18 3 -9 11 9 19 6 38 -11 23 -23 23 -23 3 -34 -15 -8
-23 -7 -32 4 -9 11 -9 15 -1 15 6 0 11 -5 11 -11 0 -5 4 -7 10 -4 13 8 -10 32
-28 31 -8 -1 -18 9 -23 21 -6 18 -4 21 11 20 15 -1 17 -5 8 -22z m558 -20 c10
-8 14 -15 8 -15 -5 0 -19 7 -30 15 -10 8 -14 15 -8 15 5 0 19 -7 30 -15z
m-436 -244 c0 -6 157 -144 249 -218 l25 -20 -219 -274 c-120 -151 -293 -364
-384 -474 -90 -110 -166 -202 -167 -204 -2 -2 -76 57 -166 131 -90 73 -198
160 -241 193 -42 33 -77 62 -77 66 0 11 473 449 769 712 l153 137 29 -21 c16
-11 29 -24 29 -28z m-1837 -251 c764 -561 1392 -1071 2046 -1660 258 -231 319
-289 671 -630 157 -152 308 -297 335 -324 32 -30 43 -45 30 -42 -27 7 -227 42
-415 72 -268 42 -802 154 -850 177 -14 6 -72 57 -130 112 -58 55 -195 179
-305 275 -352 309 -762 698 -1285 1220 -405 404 -660 667 -660 681 0 6 46 59
103 117 56 59 120 128 141 155 21 26 40 47 43 47 2 0 126 -90 276 -200z m-464
131 c7 -2 -21 -31 -30 -31 -4 0 -7 8 -6 19 1 11 7 17 17 16 8 -2 17 -4 19 -4z
m2749 -260 c50 -40 92 -77 92 -82 0 -5 -29 -71 -64 -148 -121 -261 -280 -569
-435 -844 l-73 -127 -51 41 c-80 62 -367 310 -367 315 0 3 64 82 143 177 78
95 169 206 202 247 33 41 63 77 66 80 5 4 119 148 298 376 54 68 57 71 76 55
11 -9 62 -49 113 -90z m-2303 -636 c154 -155 336 -335 405 -400 314 -301 516
-491 645 -610 144 -133 367 -339 417 -387 46 -44 229 -199 284 -241 l51 -39
-13 -61 c-7 -34 -21 -120 -31 -192 -30 -218 -23 -738 13 -915 5 -24 3 -23 -28
10 -18 19 -69 76 -113 125 -44 50 -101 113 -127 140 -25 28 -55 59 -65 71 -31
36 -247 270 -424 459 -67 72 -189 209 -294 330 -33 38 -94 107 -136 154 -215
244 -596 734 -789 1016 -25 36 -63 92 -86 123 -71 100 -280 425 -400 624
l-116 193 108 102 109 102 155 -162 c85 -89 281 -288 435 -442z m2605 410
c240 -170 431 -292 650 -412 85 -47 157 -88 159 -90 8 -6 -40 -247 -84 -418
-80 -314 -198 -629 -325 -870 -80 -151 -94 -175 -102 -172 -3 1 -87 78 -185
172 -279 266 -448 420 -716 654 -59 51 -107 95 -107 96 0 2 28 50 61 107 87
146 245 440 318 591 74 154 191 415 191 429 0 12 4 10 140 -87z m-3474 -84
c-3 -5 1 -12 10 -15 10 -4 14 -14 11 -26 -3 -11 -2 -18 3 -15 4 2 18 -17 31
-43 13 -26 28 -50 33 -53 5 -4 5 -12 1 -19 -5 -8 -4 -11 2 -7 9 6 24 -12 27
-33 1 -3 11 -19 23 -36 12 -17 20 -34 16 -38 -3 -3 -1 -6 6 -6 7 0 10 -4 7 -9
-4 -5 -2 -11 3 -13 9 -3 81 -113 81 -124 0 -3 16 -28 36 -55 20 -27 32 -49 28
-49 -4 0 0 -6 11 -13 11 -9 15 -19 10 -27 -5 -8 -4 -11 1 -7 5 3 39 -39 76
-93 49 -73 63 -101 54 -110 -8 -8 -7 -10 5 -5 11 4 26 -10 52 -47 20 -29 45
-64 54 -78 10 -14 37 -51 60 -82 39 -52 42 -58 26 -67 -10 -6 -15 -11 -12 -11
3 0 -31 -38 -75 -84 -45 -46 -114 -120 -155 -166 -55 -60 -76 -78 -83 -68 -7
10 -8 9 -6 -3 2 -9 -23 -46 -54 -81 -32 -36 -67 -77 -79 -92 -11 -14 -28 -25
-37 -24 -11 2 -17 -4 -17 -17 0 -26 -14 -47 -26 -39 -5 3 -8 2 -7 -3 5 -14
-64 -93 -75 -86 -6 3 -7 2 -4 -4 4 -7 -115 -153 -187 -230 -1 -1 -24 35 -51
80 -27 45 -52 84 -56 87 -9 7 -145 251 -185 330 -78 156 -148 311 -175 385
-16 44 -34 89 -39 100 -22 45 -49 138 -43 149 3 6 2 8 -2 3 -9 -8 -24 28 -60
147 -24 82 -24 102 2 92 8 -3 12 -2 9 2 -8 13 200 163 217 156 8 -3 18 -1 22
5 4 7 -1 9 -12 5 -21 -6 8 19 163 142 119 95 218 180 299 256 45 43 75 62 61
39z m830 -1248 c49 -65 146 -190 216 -277 71 -87 128 -163 128 -168 0 -6 -28
-40 -63 -76 -83 -88 -97 -103 -175 -195 -36 -43 -79 -86 -96 -96 -48 -29 -532
-182 -781 -247 -77 -20 -209 -56 -292 -80 -84 -24 -158 -44 -164 -44 -6 0 18
33 53 73 36 39 165 191 288 337 320 379 773 888 791 890 3 0 46 -53 95 -117z
m-661 -363 c3 -5 1 -10 -4 -10 -6 0 -11 5 -11 10 0 6 2 10 4 10 3 0 8 -4 11
-10z m1231 -345 c151 -182 281 -334 293 -345 37 -33 37 -34 -96 -207 -70 -92
-148 -195 -173 -230 -25 -34 -84 -113 -131 -175 -47 -62 -125 -166 -173 -230
-48 -65 -88 -118 -91 -118 -2 0 -4 83 -4 184 -1 348 -39 616 -137 963 -5 18
14 42 111 140 65 65 140 144 168 176 40 46 53 55 62 45 7 -7 83 -98 171 -203z
m1469 -104 c401 -93 716 -151 895 -165 30 -3 94 -8 142 -11 l87 -7 -4 -82 c-3
-44 -7 -133 -9 -197 -10 -228 -58 -475 -140 -719 l-52 -155 -270 1 c-286 2
-402 12 -647 60 -156 30 -161 34 -177 150 -21 143 -24 715 -6 936 9 109 16
205 16 213 0 11 6 15 18 11 9 -3 76 -19 147 -35z m-2021 -78 c11 -38 56 -295
75 -438 29 -212 40 -336 47 -568 l7 -202 -24 -28 c-17 -19 -52 -35 -124 -57
-256 -79 -402 -106 -653 -125 -106 -9 -212 -19 -235 -25 -42 -9 -56 -2 -57 27
0 7 -24 65 -54 130 -119 262 -178 484 -229 866 -13 96 -13 98 8 102 33 8 197
37 225 40 92 12 436 110 730 210 135 45 253 83 262 84 9 0 19 -7 22 -16z
m1137 -488 c100 -110 250 -271 333 -359 83 -87 152 -162 154 -166 4 -9 -226
-114 -333 -151 -99 -35 -323 -99 -346 -99 -19 0 -24 49 -60 557 l-23 312 38
56 c20 31 41 55 46 53 6 -2 91 -93 191 -203z m-311 -27 c0 -29 7 -136 15 -238
28 -367 36 -473 32 -476 -4 -4 -116 30 -152 46 -11 5 -69 29 -130 53 -164 67
-215 90 -215 99 0 12 14 10 30 -4 12 -11 12 -10 2 3 -11 14 -8 24 13 55 15 22
44 58 66 82 22 23 37 42 33 42 -3 0 -1 7 6 15 7 8 17 12 23 8 6 -3 7 -1 3 5
-3 6 33 62 81 124 49 63 108 142 133 176 24 34 48 62 52 62 5 0 8 -23 8 -52z
m937 -633 c24 -25 43 -52 43 -61 0 -25 38 -37 300 -93 l35 -7 -100 -65 c-299
-194 -634 -343 -972 -433 -84 -22 -93 -23 -94 -8 0 9 -2 35 -4 57 -6 46 -35
365 -35 376 0 3 30 9 68 11 37 3 99 17 137 31 114 42 404 162 485 201 41 20
79 36 84 36 5 0 29 -20 53 -45z m-1370 -55 c10 -5 63 -26 118 -46 55 -20 105
-40 110 -44 6 -4 62 -20 125 -35 63 -15 120 -29 127 -30 14 -4 20 -45 33 -210
5 -71 13 -160 16 -197 5 -48 3 -68 -5 -68 -6 0 -11 5 -11 11 0 5 -4 8 -8 5 -5
-3 -44 8 -88 23 -43 16 -126 46 -184 66 -58 21 -152 57 -210 82 -143 61 -450
214 -450 224 0 5 -8 9 -17 10 -22 0 14 17 127 59 94 35 113 47 106 66 -5 13
17 38 26 28 3 -3 5 3 5 13 -1 10 4 17 11 16 6 -2 11 1 10 5 -2 5 8 23 21 40
l23 31 49 -19 c27 -11 56 -24 66 -30z"/>
<path d="M9506 13887 c3 -10 9 -15 12 -12 3 3 0 11 -7 18 -10 9 -11 8 -5 -6z"/>
<path d="M8438 13677 c8 -9 11 -20 8 -25 -3 -5 1 -9 9 -9 16 0 4 31 -18 43 -8
6 -8 3 1 -9z"/>
<path d="M10316 14072 c-12 -11 -6 -21 9 -16 10 4 13 2 10 -7 -3 -8 4 -20 16
-27 27 -17 39 -6 13 12 -10 8 -16 18 -12 22 4 4 14 1 23 -6 10 -8 15 -9 15 -1
0 6 -1 11 -3 11 -1 0 -16 4 -34 9 -17 5 -34 7 -37 3z"/>
<path d="M10433 14013 c9 -2 23 -2 30 0 6 3 -1 5 -18 5 -16 0 -22 -2 -12 -5z"/>
<path d="M10490 14000 c-18 -12 -2 -12 25 0 13 6 15 9 5 9 -8 0 -22 -4 -30 -9z"/>
<path d="M10550 14001 c0 -5 -11 -12 -25 -15 -22 -6 -23 -9 -13 -26 7 -11 16
-20 21 -20 4 0 5 5 2 10 -3 6 1 17 9 26 15 15 21 34 11 34 -3 0 -5 -4 -5 -9z"/>
<path d="M10390 13976 c0 -17 16 -30 23 -19 3 5 -1 14 -9 21 -12 10 -14 10
-14 -2z"/>
<path d="M10595 13940 c-4 -6 3 -10 14 -10 25 0 27 6 6 13 -8 4 -17 2 -20 -3z"/>
<path d="M10556 13922 c-3 -5 15 -28 39 -52 52 -51 60 -48 14 5 -17 19 -26 35
-19 35 6 0 20 -10 30 -22 l18 -23 -1 26 c-2 23 -6 26 -39 24 -21 -1 -35 2 -32
6 3 5 3 9 0 9 -3 0 -7 -4 -10 -8z"/>
<path d="M10730 13895 c-11 -13 -10 -14 4 -9 9 3 16 10 16 15 0 13 -6 11 -20
-6z"/>
<path d="M10750 13880 c-8 -5 -12 -11 -10 -14 3 -2 14 2 24 10 22 15 10 19
-14 4z"/>
<path d="M10790 13872 c0 -12 19 -26 26 -19 2 2 -2 10 -11 17 -9 8 -15 8 -15
2z"/>
<path d="M10755 13850 c-3 -5 1 -10 9 -10 9 0 16 5 16 10 0 6 -4 10 -9 10 -6
0 -13 -4 -16 -10z"/>
<path d="M10680 13815 c-16 -20 15 -54 33 -36 8 8 7 11 -6 11 -9 0 -17 5 -17
10 0 6 7 10 15 10 8 0 15 5 15 10 0 15 -26 12 -40 -5z"/>
<path d="M10595 13800 c10 -11 20 -20 22 -20 2 0 -2 9 -9 20 -7 11 -17 20 -22
20 -5 0 -1 -9 9 -20z"/>
<path d="M10915 13803 c3 -3 0 -12 -5 -18 -8 -9 -6 -14 5 -18 10 -5 14 -1 12
13 -2 11 -6 22 -10 25 -4 3 -5 2 -2 -2z"/>
<path d="M10570 13781 c0 -5 7 -11 15 -15 8 -3 20 -17 25 -31 6 -15 14 -24 20
-20 5 3 6 13 3 23 -5 14 -3 14 17 -3 l23 -20 -14 22 c-10 16 -20 21 -34 17
-11 -4 -17 -3 -13 1 4 5 0 14 -10 21 -20 16 -32 18 -32 5z"/>
<path d="M10958 13783 c6 -2 10 -8 8 -11 -2 -4 8 -8 22 -9 l27 -1 -25 14 c-14
7 -29 13 -35 13 -5 0 -4 -3 3 -6z"/>
<path d="M10739 13729 c18 -16 36 -28 39 -25 6 7 -49 56 -63 56 -5 0 6 -14 24
-31z"/>
<path d="M10791 13724 c0 -11 3 -14 6 -6 3 7 2 16 -1 19 -3 4 -6 -2 -5 -13z"/>
<path d="M10635 13700 c-3 -5 -1 -10 4 -10 6 0 11 5 11 10 0 6 -2 10 -4 10 -3
0 -8 -4 -11 -10z"/>
<path d="M10680 13701 c0 -5 5 -13 10 -16 6 -3 10 -2 10 4 0 5 -4 13 -10 16
-5 3 -10 2 -10 -4z"/>
<path d="M10805 13670 c-3 -6 1 -7 9 -4 18 7 21 14 7 14 -6 0 -13 -4 -16 -10z"/>
<path d="M10839 13660 c-31 -25 -12 -26 21 0 14 11 20 20 14 20 -7 0 -22 -9
-35 -20z"/>
<path d="M11120 13659 c0 -5 5 -7 10 -4 6 3 10 8 10 11 0 2 -4 4 -10 4 -5 0
-10 -5 -10 -11z"/>
<path d="M10860 13635 c-8 -9 -8 -15 -2 -15 12 0 26 19 19 26 -2 2 -10 -2 -17
-11z"/>
<path d="M11145 13620 c3 -5 13 -10 21 -10 8 0 12 5 9 10 -3 6 -13 10 -21 10
-8 0 -12 -4 -9 -10z"/>
<path d="M11195 13620 c-3 -5 -1 -10 4 -10 6 0 11 5 11 10 0 6 -2 10 -4 10 -3
0 -8 -4 -11 -10z"/>
<path d="M10870 13600 c0 -5 5 -10 11 -10 5 0 7 5 4 10 -3 6 -8 10 -11 10 -2
0 -4 -4 -4 -10z"/>
<path d="M10911 13591 c-11 -7 -8 -14 15 -34 16 -14 31 -23 34 -20 3 2 -6 13
-19 24 -13 11 -21 22 -18 26 4 3 13 0 22 -7 8 -7 15 -8 15 -2 0 5 -7 13 -16
16 -19 7 -16 8 -33 -3z"/>
<path d="M10800 13576 c0 -2 7 -9 15 -16 9 -7 15 -8 15 -2 0 5 -7 12 -15 16
-8 3 -15 4 -15 2z"/>
<path d="M11290 13561 c0 -5 7 -12 16 -15 24 -9 27 -7 10 9 -17 17 -26 19 -26
6z"/>
<path d="M10800 13543 c0 -15 18 -35 23 -27 3 5 -1 15 -9 22 -8 7 -14 9 -14 5z"/>
<path d="M10990 13506 c0 -2 8 -10 18 -17 15 -13 16 -12 3 4 -13 16 -21 21
-21 13z"/>
<path d="M11034 13486 c0 -14 6 -22 14 -19 16 7 15 30 -2 36 -9 4 -13 -2 -12
-17z"/>
<path d="M11070 13448 c0 -7 11 -21 24 -30 21 -15 26 -16 36 -3 13 15 5 20
-27 16 -8 -1 -10 5 -7 14 4 10 0 15 -10 15 -9 0 -16 -6 -16 -12z"/>
<path d="M11441 13414 c0 -11 3 -14 6 -6 3 7 2 16 -1 19 -3 4 -6 -2 -5 -13z"/>
<path d="M10970 13410 c0 -5 5 -10 11 -10 5 0 7 5 4 10 -3 6 -8 10 -11 10 -2
0 -4 -4 -4 -10z"/>
<path d="M11191 13404 c0 -11 3 -14 6 -6 3 7 2 16 -1 19 -3 4 -6 -2 -5 -13z"/>
<path d="M11480 13406 c0 -4 12 -11 26 -16 14 -6 23 -14 20 -18 -2 -4 4 -8 14
-9 40 -3 33 23 -7 32 -10 2 -26 6 -35 10 -10 4 -18 4 -18 1z m75 -34 c-3 -3
-11 0 -18 7 -9 10 -8 11 6 5 10 -3 15 -9 12 -12z"/>
<path d="M11142 13388 c5 -15 28 -23 28 -10 0 5 -7 13 -16 16 -10 4 -14 1 -12
-6z"/>
<path d="M11455 13380 c3 -5 8 -10 11 -10 2 0 4 5 4 10 0 6 -5 10 -11 10 -5 0
-7 -4 -4 -10z"/>
<path d="M11186 13361 c-3 -5 1 -14 9 -21 10 -9 15 -9 15 -1 0 6 -5 11 -11 11
-5 0 -7 5 -4 10 3 6 4 10 1 10 -3 0 -7 -4 -10 -9z"/>
<path d="M11232 13349 c11 -8 11 -10 -1 -18 -9 -6 -10 -11 -2 -15 6 -4 11 -2
11 3 0 6 7 11 15 11 17 0 20 -17 4 -22 -7 -2 -7 -8 3 -15 11 -10 13 -5 13 25
0 34 -2 37 -28 38 -19 1 -24 -2 -15 -7z"/>
<path d="M11055 13330 c3 -5 8 -10 11 -10 2 0 4 5 4 10 0 6 -5 10 -11 10 -5 0
-7 -4 -4 -10z"/>
<path d="M11027 13319 c7 -7 15 -10 18 -7 3 3 -2 9 -12 12 -14 6 -15 5 -6 -5z"/>
<path d="M11609 13328 c-1 -2 -3 -12 -4 -23 -1 -14 4 -21 16 -21 11 0 19 6 19
13 0 7 -7 10 -15 7 -8 -4 -15 -2 -15 4 0 6 6 13 13 15 10 4 10 6 0 6 -7 1 -14
0 -14 -1z"/>
<path d="M11094 13286 c-10 -8 -15 -18 -11 -23 5 -4 14 0 21 9 7 10 17 14 21
10 5 -4 5 -1 1 6 -9 15 -8 15 -32 -2z"/>
<path d="M11356 13263 c38 -16 53 -16 69 1 12 11 5 13 -42 12 -54 0 -55 -1
-27 -13z"/>
<path d="M11140 13265 c0 -2 10 -10 23 -16 20 -11 21 -11 8 4 -13 16 -31 23
-31 12z"/>
<path d="M11314 13255 c11 -8 24 -15 30 -15 5 0 1 7 -10 15 -10 8 -23 14 -29
14 -5 0 -1 -6 9 -14z"/>
<path d="M11370 13230 c-9 -6 -10 -10 -3 -10 6 0 19 -7 28 -16 22 -23 27 -13
7 13 -13 17 -21 20 -32 13z"/>
<path d="M11433 13200 c0 -25 2 -35 4 -22 2 12 2 32 0 45 -2 12 -4 2 -4 -23z"/>
<path d="M11210 13175 c0 -7 39 -45 45 -45 9 0 -19 40 -32 44 -7 3 -13 3 -13
1z"/>
<path d="M11270 13149 c0 -5 4 -8 9 -5 5 3 14 -1 20 -8 8 -9 8 -17 2 -20 -5
-3 -12 0 -14 6 -4 10 -6 10 -6 0 -1 -7 -6 -10 -13 -6 -7 4 -8 3 -4 -5 4 -6 12
-9 17 -6 5 4 9 1 9 -6 0 -10 3 -10 12 -1 9 9 16 8 30 -5 34 -31 28 -6 -7 30
-36 37 -55 46 -55 26z"/>
<path d="M11680 13123 c0 -13 5 -23 10 -23 13 0 13 11 0 30 -8 12 -10 11 -10
-7z"/>
<path d="M11432 13110 c0 -14 2 -19 5 -12 2 6 2 18 0 25 -3 6 -5 1 -5 -13z"/>
<path d="M11315 13070 c3 -5 8 -10 11 -10 2 0 4 5 4 10 0 6 -5 10 -11 10 -5 0
-7 -4 -4 -10z"/>
<path d="M11350 13060 c-12 -8 -9 -10 13 -10 15 0 27 5 27 10 0 13 -20 13 -40
0z"/>
<path d="M11415 13050 c-3 -5 0 -10 7 -10 8 0 6 -5 -4 -11 -10 -5 -18 -15 -18
-21 0 -6 9 -3 20 7 21 19 27 45 11 45 -6 0 -13 -4 -16 -10z"/>
<path d="M11470 13025 c14 -8 19 -14 13 -15 -7 0 -13 -4 -13 -10 0 -5 12 -10
28 -9 15 0 22 3 15 5 -7 3 -10 11 -7 18 3 8 -4 16 -18 20 -38 10 -45 6 -18 -9z"/>
<path d="M11665 13029 c-5 -5 -19 -16 -30 -24 -20 -14 -20 -14 2 -9 22 6 64
44 47 44 -5 -1 -13 -5 -19 -11z"/>
<path d="M9433 14084 c-3 -8 -3 -18 1 -21 3 -4 6 2 6 13 0 14 2 16 9 5 5 -8
11 -9 15 -3 3 5 -1 13 -9 16 -9 3 -18 -1 -22 -10z"/>
<path d="M9406 14046 c3 -9 11 -16 16 -16 13 0 5 23 -10 28 -7 2 -10 -2 -6
-12z"/>
<path d="M9370 14039 c0 -5 5 -7 10 -4 6 3 10 8 10 11 0 2 -4 4 -10 4 -5 0
-10 -5 -10 -11z"/>
<path d="M9342 14033 c-9 -3 -7 -10 9 -24 13 -11 20 -26 17 -37 -7 -25 14 -24
34 3 16 21 8 59 -9 42 -4 -5 -2 -12 5 -16 10 -6 10 -10 -1 -20 -12 -9 -16 -7
-21 14 -4 14 -11 25 -17 25 -6 0 -7 5 -4 10 7 11 6 11 -13 3z"/>
<path d="M9306 13995 c-3 -8 6 -15 25 -17 35 -5 37 3 5 18 -19 9 -26 9 -30 -1z"/>
<path d="M9235 13964 c-22 -15 -31 -23 -20 -19 11 4 28 10 38 12 9 3 17 10 17
15 0 5 5 6 12 2 7 -4 8 -3 4 4 -9 15 -4 16 -51 -14z"/>
<path d="M9301 13953 c-7 -3 -22 -14 -33 -25 -11 -11 -28 -18 -38 -15 -13 3
-17 0 -13 -9 5 -15 33 -20 33 -6 0 14 69 45 85 38 15 -5 12 -11 -14 -41 -44
-50 -38 -58 7 -10 37 39 38 40 19 58 -20 18 -24 19 -46 10z"/>
<path d="M9073 13869 c-36 -23 -45 -36 -13 -19 22 12 54 0 63 -22 4 -9 6 -10
6 -1 1 6 -3 14 -8 17 -5 3 -7 15 -4 26 7 25 -4 25 -44 -1z m37 1 c0 -5 -5 -10
-11 -10 -5 0 -7 5 -4 10 3 6 8 10 11 10 2 0 4 -4 4 -10z"/>
<path d="M9196 13839 c-16 -38 -15 -61 1 -46 5 6 8 17 12 60 1 5 6 5 11 2 6
-4 7 -12 4 -18 -5 -9 -4 -9 5 -1 12 11 5 44 -9 44 -4 0 -15 -19 -24 -41z"/>
<path d="M9006 13825 c-8 -9 -34 -26 -56 -39 l-40 -23 30 0 c17 0 26 4 19 8
-8 4 -5 9 8 13 11 4 30 18 43 31 25 27 22 35 -4 10z"/>
<path d="M9090 13830 c0 -5 5 -10 10 -10 6 0 10 5 10 10 0 6 -4 10 -10 10 -5
0 -10 -4 -10 -10z"/>
<path d="M9150 13826 c0 -7 -7 -19 -15 -26 -14 -12 -14 -15 1 -31 9 -10 21
-16 26 -13 5 3 2 11 -7 18 -15 11 -15 13 -1 25 18 15 22 41 6 41 -5 0 -10 -6
-10 -14z"/>
<path d="M9020 13800 c-8 -11 -21 -20 -30 -21 -8 0 -4 -5 9 -10 13 -5 29 -8
35 -5 6 2 2 5 -8 5 -18 1 -19 2 -1 21 10 11 16 22 14 25 -3 2 -11 -4 -19 -15z"/>
<path d="M9221 13764 c-45 -61 -51 -82 -8 -35 14 16 23 32 20 35 -4 3 -1 6 5
6 7 0 12 6 12 14 0 8 6 16 13 19 6 2 9 7 6 11 -3 3 -25 -19 -48 -50z"/>
<path d="M9088 13803 c7 -3 16 -2 19 1 4 3 -2 6 -13 5 -11 0 -14 -3 -6 -6z"/>
<path d="M9085 13750 c-4 -6 -10 -8 -15 -5 -5 3 -12 -4 -15 -16 -8 -25 2 -39
11 -15 3 9 15 16 25 16 10 0 19 7 19 15 0 17 -16 20 -25 5z"/>
<path d="M8936 13735 c4 -8 10 -12 15 -9 14 8 10 24 -6 24 -9 0 -12 -6 -9 -15z"/>
<path d="M9120 13729 c0 -5 5 -7 10 -4 6 3 10 8 10 11 0 2 -4 4 -10 4 -5 0
-10 -5 -10 -11z"/>
<path d="M8866 13705 c4 -8 1 -15 -5 -15 -6 0 -11 -7 -11 -15 0 -18 -17 -20
-23 -2 -2 6 3 17 12 24 9 7 11 13 5 13 -6 0 -33 -20 -60 -45 -27 -24 -44 -45
-39 -45 6 0 4 -4 -3 -9 -9 -5 -3 -8 17 -7 25 1 28 3 16 12 -21 16 -19 27 5 21
11 -3 18 -1 14 4 -3 5 0 17 5 26 10 17 10 17 11 1 0 -19 11 -22 48 -12 16 5
22 14 22 35 0 16 -4 29 -10 29 -5 0 -7 -7 -4 -15z"/>
<path d="M9090 13705 c-18 -22 -8 -33 12 -13 10 9 13 20 9 23 -5 2 -14 -2 -21
-10z"/>
<path d="M9045 13664 c3 -16 2 -23 -1 -16 -8 17 -24 15 -24 -3 0 -19 24 -19
40 0 10 12 9 18 -5 31 -15 15 -16 14 -10 -12z"/>
<path d="M9153 13675 c0 -8 4 -15 9 -15 4 0 8 7 8 15 0 8 -4 15 -8 15 -5 0 -9
-7 -9 -15z"/>
<path d="M8709 13613 c-13 -16 -12 -17 4 -4 16 13 21 21 13 21 -2 0 -10 -8
-17 -17z"/>
<path d="M8980 13610 c0 -5 5 -10 12 -10 6 0 1 -12 -13 -27 l-24 -28 28 24
c30 27 36 51 12 51 -8 0 -15 -4 -15 -10z"/>
<path d="M8681 13588 c-1 -10 -8 -18 -16 -18 -8 0 -15 -4 -15 -10 0 -5 4 -10
9 -10 14 0 33 28 28 42 -4 8 -6 7 -6 -4z"/>
<path d="M9080 13581 c0 -5 -8 -11 -17 -13 -12 -2 -14 -6 -7 -10 6 -4 19 1 29
12 10 12 13 20 7 20 -7 0 -12 -4 -12 -9z"/>
<path d="M8889 13516 c-1 0 -2 -13 -3 -28 l-2 -28 28 27 c15 15 28 27 28 27 0
2 -50 4 -51 2z m21 -16 c0 -5 -4 -10 -10 -10 -5 0 -10 5 -10 10 0 6 5 10 10
10 6 0 10 -4 10 -10z"/>
<path d="M9019 13507 c7 -7 14 -8 21 -1 6 6 2 10 -12 11 -16 2 -18 -1 -9 -10z"/>
<path d="M8530 13465 c-20 -21 -21 -25 -6 -25 9 0 14 5 11 10 -3 6 -2 10 4 10
5 0 13 -4 16 -10 3 -5 12 -10 18 -10 7 0 4 7 -7 15 -10 7 -15 18 -11 24 11 19
-1 12 -25 -14z"/>
<path d="M8975 13470 c3 -5 11 -10 16 -10 6 0 7 5 4 10 -3 6 -11 10 -16 10 -6
0 -7 -4 -4 -10z"/>
<path d="M8810 13436 c0 -2 7 -7 16 -10 8 -3 12 -2 9 4 -6 10 -25 14 -25 6z"/>
<path d="M8460 13412 c-8 -9 -16 -27 -17 -40 -1 -13 -7 -30 -14 -38 -14 -17
-39 -19 -39 -2 0 6 -7 4 -18 -5 -10 -10 -19 -24 -19 -32 0 -17 13 -20 22 -5 3
6 1 10 -6 10 -10 0 -10 3 -1 12 10 10 15 10 22 -2 5 -8 6 -18 4 -22 -3 -4 2
-8 12 -8 11 0 14 4 7 13 -12 16 41 69 55 55 6 -6 10 7 9 36 0 25 -1 46 -1 46
-1 -1 -8 -8 -16 -18z m10 -22 c0 -5 -4 -10 -10 -10 -5 0 -10 5 -10 10 0 6 5
10 10 10 6 0 10 -4 10 -10z"/>
<path d="M8780 13406 c0 -8 6 -16 14 -19 10 -4 12 0 9 14 -6 22 -23 26 -23 5z"/>
<path d="M8736 13365 c-3 -8 -14 -15 -25 -15 -26 0 -51 -10 -51 -21 0 -5 11
-4 25 1 14 5 27 5 30 0 3 -5 -4 -11 -15 -15 -11 -3 -20 -11 -20 -17 0 -15 -48
-58 -65 -58 -7 0 -17 -9 -20 -20 -6 -20 -15 -24 -45 -21 -13 2 -13 1 0 -8 24
-17 2 -25 -28 -11 -15 8 -30 16 -34 18 -4 1 -5 -4 -2 -12 3 -9 16 -16 28 -16
21 -1 21 -1 2 -15 -16 -12 -22 -12 -28 -2 -5 7 -7 3 -6 -13 3 -21 -1 -25 -22
-23 -21 2 -22 1 -8 -7 13 -8 28 -3 65 26 26 20 50 39 53 43 3 3 25 22 50 42
25 20 62 53 83 73 21 20 43 36 48 36 5 0 9 5 9 11 0 8 -6 7 -17 -2 -14 -12
-16 -12 -11 1 3 8 14 15 26 14 13 0 18 4 15 13 -7 18 -30 17 -37 -2z"/>
<path d="M8845 13340 c-3 -5 -1 -10 4 -10 6 0 11 5 11 10 0 6 -2 10 -4 10 -3
0 -8 -4 -11 -10z"/>
<path d="M8815 13310 c-8 -13 3 -30 18 -29 9 0 9 2 0 5 -7 3 -9 12 -6 20 6 16
-3 19 -12 4z"/>
<path d="M8641 13298 c-1 -10 -12 -20 -26 -24 -30 -7 -33 -24 -5 -24 21 0 44
34 36 53 -2 7 -5 4 -5 -5z"/>
<path d="M8797 13255 c-4 -8 -2 -17 3 -20 6 -4 10 3 10 14 0 25 -6 27 -13 6z"/>
<path d="M8750 13245 c-8 -9 -8 -15 -2 -15 12 0 26 19 19 26 -2 2 -10 -2 -17
-11z"/>
<path d="M8560 13235 c0 -8 2 -15 4 -15 2 0 6 7 10 15 3 8 1 15 -4 15 -6 0
-10 -7 -10 -15z"/>
<path d="M8753 13213 c-18 -12 -23 -12 -23 -2 0 7 -10 3 -25 -11 -14 -13 -25
-28 -25 -33 0 -6 10 -1 23 11 19 18 26 19 37 9 10 -10 11 -9 5 2 -6 11 -4 13
11 7 10 -4 15 -4 11 0 -4 4 1 13 11 20 24 19 2 16 -25 -3z"/>
<path d="M8271 13164 c-7 -8 -11 -17 -9 -20 3 -2 13 5 23 16 10 11 14 20 9 20
-5 -1 -15 -8 -23 -16z"/>
<path d="M8656 13143 c-6 -14 -5 -15 5 -6 7 7 10 15 7 18 -3 3 -9 -2 -12 -12z"/>
<path d="M8690 13140 c0 -5 5 -10 10 -10 6 0 10 5 10 10 0 6 -4 10 -10 10 -5
0 -10 -4 -10 -10z"/>
<path d="M8400 13110 c0 -6 7 -10 15 -10 8 0 15 2 15 4 0 2 -7 6 -15 10 -8 3
-15 1 -15 -4z"/>
<path d="M8597 13088 c-16 -12 -16 -14 3 -26 12 -7 20 -8 20 -2 0 5 -5 10 -11
10 -8 0 -8 5 1 15 15 18 10 19 -13 3z"/>
<path d="M8518 13011 c-26 -26 -45 -51 -42 -54 3 -3 23 13 45 35 34 36 41 39
57 27 16 -13 16 -13 -1 7 -9 11 -14 24 -10 27 3 4 4 7 2 7 -2 0 -25 -22 -51
-49z"/>
<path d="M8580 13046 c0 -2 7 -9 15 -16 13 -11 14 -10 9 4 -5 14 -24 23 -24
12z"/>
<path d="M8370 13029 c0 -5 5 -7 10 -4 6 3 10 8 10 11 0 2 -4 4 -10 4 -5 0
-10 -5 -10 -11z"/>
<path d="M8337 12990 c8 -30 21 -34 15 -5 -2 14 -8 25 -12 25 -5 0 -6 -9 -3
-20z"/>
<path d="M8370 13000 c0 -8 5 -22 10 -30 9 -13 10 -13 10 0 0 8 -5 22 -10 30
-9 13 -10 13 -10 0z"/>
<path d="M8564 13002 c3 -5 1 -12 -6 -14 -8 -3 -9 -6 -1 -11 6 -4 13 0 17 8 3
8 0 17 -6 21 -6 4 -8 3 -4 -4z"/>
<path d="M8151 12944 c0 -11 3 -14 6 -6 3 7 2 16 -1 19 -3 4 -6 -2 -5 -13z"/>
<path d="M8180 12865 c0 -8 4 -15 10 -15 5 0 7 7 4 15 -4 8 -8 15 -10 15 -2 0
-4 -7 -4 -15z"/>
<path d="M8414 12861 c12 -11 18 -11 38 3 23 16 23 16 -14 14 -32 -3 -35 -5
-24 -17z"/>
<path d="M8400 12840 c0 -5 5 -10 11 -10 5 0 7 5 4 10 -3 6 -8 10 -11 10 -2 0
-4 -4 -4 -10z"/>
<path d="M8224 12795 c21 -16 101 -21 110 -7 3 5 -16 7 -43 4 -30 -2 -51 0
-55 7 -4 6 -13 11 -19 11 -7 0 -3 -7 7 -15z"/>
<path d="M7375 13490 c10 -11 20 -20 23 -20 3 0 -3 9 -13 20 -10 11 -20 20
-23 20 -3 0 3 -9 13 -20z"/>
<path d="M8240 12501 c0 -6 4 -13 10 -16 6 -3 7 1 4 9 -7 18 -14 21 -14 7z"/>
<path d="M8415 12199 c-4 -6 -5 -12 -2 -15 2 -3 7 2 10 11 7 17 1 20 -8 4z"/>
<path d="M8640 11885 c0 -5 5 -17 10 -25 5 -8 10 -10 10 -5 0 6 -5 17 -10 25
-5 8 -10 11 -10 5z"/>
<path d="M8676 11805 c4 -8 11 -15 16 -15 6 0 5 6 -2 15 -7 8 -14 15 -16 15
-2 0 -1 -7 2 -15z"/>
<path d="M8840 11399 c0 -5 5 -7 10 -4 6 3 10 8 10 11 0 2 -4 4 -10 4 -5 0
-10 -5 -10 -11z"/>
<path d="M9901 9834 c0 -11 3 -14 6 -6 3 7 2 16 -1 19 -3 4 -6 -2 -5 -13z"/>
<path d="M9850 9799 c0 -5 5 -7 10 -4 6 3 10 8 10 11 0 2 -4 4 -10 4 -5 0 -10
-5 -10 -11z"/>
<path d="M16620 12252 c-44 -17 -46 -19 -132 -187 -48 -93 -87 -180 -88 -191
0 -29 22 -45 89 -66 150 -47 271 7 271 121 0 25 -7 56 -15 68 -14 20 -14 23 5
33 31 16 60 70 60 109 0 48 -33 96 -80 115 -49 19 -53 19 -110 -2z m76 -93
c21 -17 -1 -47 -44 -59 -20 -5 -41 -10 -45 -10 -8 0 1 66 11 84 6 10 60 0 78
-15z m-58 -182 c51 -47 14 -94 -65 -82 -48 7 -48 7 -17 81 11 26 18 31 36 27
13 -3 33 -15 46 -26z"/>
<path d="M3722 12237 c-17 -12 -52 -41 -79 -64 l-49 -42 -13 34 c-14 38 -34
49 -63 34 -19 -10 -20 -18 -15 -88 7 -95 51 -226 88 -263 68 -69 108 -4 65
103 -6 13 22 6 115 -28 125 -45 174 -51 192 -22 5 9 7 27 3 42 -7 30 -48 46
-195 76 -51 11 -95 22 -98 25 -3 3 22 39 56 80 64 79 74 109 43 125 -14 8 -26
5 -50 -12z"/>
<path d="M13755 12219 c-123 -29 -193 -145 -234 -389 -58 -348 -63 -394 -59
-484 5 -99 22 -146 77 -209 34 -38 110 -82 178 -102 54 -16 663 -150 1783
-391 421 -91 898 -194 1060 -229 1326 -288 1269 -277 1360 -273 68 4 96 10
139 32 171 88 287 333 298 631 5 126 3 147 -17 204 -72 213 -223 300 -730 416
-101 23 -814 214 -969 259 -654 191 -1515 365 -2531 511 -257 37 -290 39 -355
24z m470 -165 c671 -104 1175 -204 1915 -379 80 -19 183 -46 230 -60 104 -32
521 -143 685 -183 623 -154 873 -222 971 -267 134 -61 193 -143 201 -280 8
-117 -50 -356 -112 -460 -33 -57 -104 -119 -153 -133 -80 -24 -214 -9 -447 49
-110 28 -627 142 -1315 289 -151 33 -484 104 -740 160 -256 55 -537 116 -625
135 -88 19 -297 64 -465 100 -168 37 -371 79 -451 95 -158 31 -206 50 -256
102 -82 86 -86 192 -18 537 38 194 54 229 127 279 57 39 140 63 198 55 14 -1
129 -19 255 -39z"/>
<path d="M14065 11922 c-118 -33 -194 -91 -243 -187 -37 -71 -43 -197 -13
-276 53 -139 156 -204 451 -285 659 -180 1155 -289 2500 -549 245 -48 526
-105 625 -127 148 -34 199 -41 290 -42 127 -1 164 9 234 64 35 27 59 59 81
104 30 60 32 71 28 148 -3 66 -9 95 -32 140 -32 63 -111 148 -171 183 -65 38
-191 81 -325 110 -109 23 -478 111 -935 221 -77 19 -275 66 -440 104 -165 39
-355 86 -423 105 -136 38 -474 117 -707 165 -82 17 -225 48 -316 70 -306 73
-477 87 -604 52z m1152 -263 c54 -12 101 -24 106 -28 4 -4 19 -79 32 -167 22
-142 66 -389 81 -453 5 -23 3 -23 -33 -18 -21 4 -71 14 -111 23 l-72 16 0 35
c0 20 -11 90 -24 157 -13 66 -36 184 -50 261 -15 77 -29 152 -32 168 -4 15 -4
27 0 27 3 0 49 -10 103 -21z m255 -60 l57 -11 5 -42 c3 -22 8 -70 11 -106 3
-36 19 -159 36 -273 17 -114 29 -210 26 -213 -3 -3 -30 -1 -61 6 -47 10 -55
15 -60 38 -3 15 -17 97 -31 182 -29 178 -72 401 -82 426 -5 14 -2 16 18 11 13
-4 50 -12 81 -18z m363 -93 c121 -29 369 -86 550 -126 314 -68 485 -106 675
-151 118 -28 503 -134 571 -158 164 -56 267 -138 289 -231 28 -119 -11 -213
-108 -258 -110 -50 -130 -48 -1177 162 -511 102 -939 188 -951 191 -18 4 -22
17 -33 112 -10 90 -42 320 -68 487 -5 34 -4 38 13 32 10 -3 118 -30 239 -60z"/>
<path d="M3188 12162 c-49 -16 -93 -33 -98 -38 -7 -7 -4 -53 10 -142 27 -179
38 -219 68 -242 29 -24 33 -24 57 -6 13 9 18 26 18 59 0 40 3 46 24 52 13 3
39 -2 61 -13 44 -23 156 -62 175 -62 8 0 22 9 32 20 15 16 16 25 7 44 -8 18
-31 31 -91 51 l-81 27 20 25 c54 69 43 183 -23 226 -44 28 -87 28 -179 -1z
m130 -111 c2 -13 -2 -34 -8 -46 -11 -21 -77 -65 -97 -65 -8 0 -43 87 -43 109
0 6 10 11 23 11 12 0 29 5 37 10 8 6 31 9 50 8 28 -3 36 -8 38 -27z"/>
<path d="M16931 12151 c-43 -43 -151 -289 -151 -343 0 -65 44 -77 84 -25 14
19 31 48 37 65 18 51 46 43 54 -15 11 -79 25 -123 46 -144 24 -24 34 -24 59 1
26 26 25 50 -4 132 l-24 67 34 11 c104 35 121 166 29 235 -50 39 -133 47 -164
16z m104 -94 c34 -29 25 -54 -26 -67 -51 -14 -60 -7 -48 33 6 17 12 38 15 45
5 19 30 14 59 -11z"/>
<path d="M5960 12124 c-986 -142 -1829 -307 -2440 -477 -562 -157 -1020 -279
-1260 -336 -364 -87 -511 -178 -588 -363 -24 -57 -26 -75 -26 -193 1 -146 16
-228 67 -363 80 -213 199 -320 366 -330 80 -4 121 2 399 62 259 57 661 144
1927 417 372 80 520 112 805 175 85 18 353 76 595 129 242 52 466 104 499 115
194 65 271 206 237 435 -79 518 -105 610 -197 697 -32 29 -126 59 -184 57 -19
0 -109 -12 -200 -25z m230 -142 c58 -30 109 -78 126 -119 21 -49 84 -386 91
-483 10 -143 -35 -243 -128 -291 -22 -11 -108 -33 -192 -50 -144 -28 -819
-173 -1722 -369 -225 -49 -705 -152 -1065 -230 -360 -78 -707 -154 -770 -170
-303 -76 -428 -87 -515 -46 -93 43 -151 135 -202 321 -23 84 -27 120 -28 225
0 110 3 130 22 165 47 88 143 150 303 198 109 33 250 69 810 211 250 63 525
136 610 161 147 43 567 144 915 221 307 68 663 136 1095 209 491 84 568 89
650 47z"/>
<path d="M5595 11844 c-49 -8 -164 -32 -255 -54 -91 -22 -264 -60 -385 -86
-253 -52 -544 -121 -693 -164 -56 -17 -146 -39 -200 -51 -53 -11 -254 -59
-447 -105 -302 -73 -754 -180 -1140 -270 -216 -51 -339 -116 -415 -221 -52
-71 -72 -120 -77 -194 -5 -54 -1 -76 19 -127 35 -84 72 -125 148 -164 63 -32
68 -33 185 -32 103 1 145 7 295 42 96 22 308 66 470 97 1424 276 1960 392
2544 551 279 76 332 95 404 141 71 45 105 81 137 147 98 200 -25 438 -254 490
-84 19 -213 19 -336 0z m-2222 -826 c-34 -134 -66 -271 -69 -305 l-7 -62 -46
-10 c-119 -25 -124 -25 -118 -5 25 85 90 362 108 459 12 66 23 122 25 124 2 2
101 26 165 40 3 0 -23 -108 -58 -241z m-153 186 c0 -3 -15 -52 -34 -107 -30
-89 -70 -255 -106 -438 -10 -52 -14 -57 -42 -63 -67 -13 -67 -15 -46 72 36
155 108 491 108 505 0 10 17 18 48 25 60 12 72 13 72 6z m-175 -51 c-4 -10
-20 -75 -36 -145 -16 -70 -42 -180 -58 -245 -16 -65 -32 -135 -35 -155 -4 -21
-9 -38 -11 -38 -2 0 -106 -21 -232 -46 -326 -66 -446 -64 -529 8 -19 17 -42
44 -50 60 -21 41 -21 143 1 196 22 55 103 127 182 163 74 34 330 111 573 173
204 52 204 52 195 29z"/>
<path d="M2831 12043 c-15 -13 -32 -62 -61 -176 -40 -157 -50 -240 -29 -252
18 -12 56 4 62 25 3 11 11 22 19 24 7 2 48 14 90 27 l78 23 25 -24 c21 -20 30
-22 52 -14 47 17 51 38 19 98 -16 30 -57 94 -92 141 -108 152 -121 162 -163
128z m96 -247 c-4 -12 -56 -30 -64 -22 -4 3 0 25 6 48 l13 43 24 -30 c13 -17
23 -34 21 -39z"/>
<path d="M17252 12048 c-36 -46 -92 -216 -92 -282 0 -43 36 -111 66 -124 36
-17 100 -15 141 5 48 22 85 83 123 204 31 96 32 101 15 119 -10 11 -29 20 -42
20 -26 0 -34 -14 -78 -141 -28 -81 -61 -123 -92 -117 -27 5 -28 57 -2 184 12
60 20 118 16 127 -7 20 -40 23 -55 5z"/>
<path d="M17619 11920 c-98 -52 -147 -181 -101 -269 59 -116 252 -140 252 -32
0 40 -19 52 -72 45 -38 -5 -49 -3 -67 15 -25 25 -27 61 -7 100 24 46 63 66
131 66 54 0 60 2 63 22 2 14 -7 29 -31 47 -42 32 -114 35 -168 6z"/>
<path d="M17916 11838 c-50 -86 -119 -243 -119 -271 0 -38 27 -58 126 -97 88
-34 128 -37 151 -14 37 36 5 74 -90 104 l-71 23 10 34 c6 18 13 33 17 33 3 0
23 -9 45 -20 67 -34 155 -22 155 20 0 24 -33 46 -83 54 -76 14 -98 32 -78 65
8 12 21 10 81 -13 75 -27 99 -25 119 12 19 36 -4 59 -86 86 -43 14 -95 26
-115 26 -33 0 -40 -5 -62 -42z"/>
<path d="M2243 11833 c-13 -31 -15 -62 -9 -170 3 -72 10 -143 16 -157 18 -49
42 -48 215 11 192 65 204 70 211 100 8 31 -20 73 -49 73 -13 0 -74 -18 -136
-40 -62 -22 -117 -40 -121 -40 -5 0 -11 21 -15 48 -10 80 -27 156 -41 185 -21
40 -51 36 -71 -10z"/>
<path d="M1994 11811 c-134 -34 -243 -149 -244 -258 -1 -153 156 -230 315
-155 113 54 154 112 109 156 -23 23 -38 20 -110 -23 -79 -48 -114 -57 -151
-39 -22 10 -29 21 -31 50 -6 66 66 126 193 163 68 19 85 30 85 55 0 42 -91 70
-166 51z"/>
<path d="M16172 10389 c-51 -26 -87 -75 -102 -142 -36 -163 133 -298 285 -228
47 22 89 64 104 104 26 69 4 168 -52 239 -39 50 -161 63 -235 27z"/>
<path d="M3640 10308 c-37 -19 -51 -35 -78 -88 -30 -57 -33 -72 -28 -119 6
-67 44 -125 101 -159 33 -19 52 -22 107 -20 55 3 75 9 110 33 128 89 113 293
-27 356 -56 26 -130 24 -185 -3z"/>
<path d="M16785 10285 c-5 -2 -22 -6 -37 -9 -39 -9 -98 -64 -119 -111 -66
-145 60 -315 215 -291 120 20 198 137 166 249 -15 55 -58 117 -95 138 -29 17
-110 32 -130 24z m92 -87 c70 -42 98 -117 66 -178 -43 -83 -151 -107 -218 -49
-64 57 -68 154 -8 211 53 51 96 55 160 16z"/>
<path d="M3137 10199 c-54 -13 -83 -35 -113 -87 -23 -39 -28 -60 -28 -119 -1
-64 2 -76 29 -114 80 -113 245 -114 331 -2 116 152 -31 368 -219 322z"/>
<path d="M17250 10144 c-146 -63 -168 -270 -38 -360 42 -29 112 -41 173 -30
43 8 113 68 132 113 30 73 2 195 -59 251 -46 42 -142 55 -208 26z m123 -60
c40 -21 86 -71 94 -102 23 -95 -76 -192 -172 -168 -14 4 -42 21 -62 40 -31 28
-37 40 -40 87 -5 63 17 107 69 139 40 24 69 25 111 4z"/>
<path d="M2605 10067 c-49 -20 -61 -30 -93 -81 -72 -113 -41 -240 70 -297 44
-23 126 -28 169 -11 72 29 128 111 129 190 0 117 -90 210 -205 210 -22 0 -53
-5 -70 -11z m122 -62 c45 -19 70 -48 83 -97 20 -74 -25 -156 -96 -174 -36 -9
-94 2 -124 24 -38 27 -62 84 -55 125 12 60 90 135 143 137 7 0 29 -7 49 -15z"/>
<path d="M4855 9200 c-287 -98 -516 -242 -729 -459 -54 -54 -90 -82 -110 -86
-78 -16 -230 -71 -326 -118 -57 -29 -107 -53 -111 -55 -3 -1 -11 22 -18 51
-31 140 -164 256 -353 306 -128 35 -230 44 -412 38 -240 -8 -332 -37 -430
-134 -58 -58 -94 -128 -151 -293 -56 -160 -122 -304 -193 -418 -68 -109 -116
-171 -251 -322 -289 -322 -337 -430 -382 -860 -35 -343 -23 -603 36 -772 60
-170 113 -239 450 -573 305 -304 368 -381 468 -575 67 -129 115 -251 162 -409
32 -108 35 -129 29 -191 -8 -88 16 -145 75 -178 90 -51 179 -16 299 115 101
111 162 148 230 139 26 -3 304 -6 617 -7 502 -1 576 1 617 15 38 13 96 17 287
19 l240 2 10 -41 11 -41 142 -7 c178 -8 4301 4 4383 12 81 9 90 27 90 179 l0
113 85 1 c141 1 200 12 223 40 18 22 19 34 14 124 -7 111 -22 143 -73 157 -16
5 -244 12 -507 15 -432 6 -477 8 -471 22 48 115 47 325 -3 528 l-5 23 323 -5
c478 -7 609 9 654 79 21 31 18 107 -20 631 -40 544 -55 760 -65 954 -6 101
-13 196 -17 210 -19 80 -68 130 -143 146 -19 4 -749 8 -1621 8 l-1586 0 -45
-31 c-60 -41 -82 -88 -85 -182 -7 -264 51 -1321 88 -1595 21 -157 28 -175 87
-215 l37 -25 682 -3 c375 -1 714 2 755 7 40 5 76 6 80 2 4 -3 18 -78 33 -166
14 -88 28 -168 31 -177 5 -17 -9 -18 -189 -18 -196 0 -287 -10 -316 -33 -13
-10 -97 -12 -383 -9 l-368 4 0 21 c0 33 -106 127 -192 171 -113 57 -161 58
-374 7 -94 -23 -195 -48 -224 -57 -48 -14 -53 -14 -71 2 -10 9 -19 29 -19 43
0 125 -99 208 -287 240 -146 24 -336 -3 -504 -74 -72 -30 -77 -31 -88 -14 -9
16 -5 26 24 65 19 25 35 56 35 69 0 25 -112 178 -187 256 l-44 46 118 6 c218
10 468 61 600 122 81 38 165 110 195 169 27 54 34 147 14 210 l-15 50 40 44
c57 62 99 156 117 266 13 83 13 102 0 184 -15 85 -43 161 -84 224 l-18 27 46
43 c52 48 101 142 119 227 11 53 7 219 -6 272 -6 21 -2 27 22 38 15 7 76 42
136 79 86 54 107 71 107 90 0 36 -75 139 -171 234 -70 69 -106 95 -179 132
-51 25 -98 46 -106 46 -21 0 -18 5 41 60 103 98 197 271 228 418 17 82 10 84
-269 102 -241 15 -595 -22 -786 -83 -43 -14 -78 -23 -78 -21 0 3 12 28 26 57
33 64 61 161 70 237 9 81 -5 87 -111 50z m-2047 -418 c5 -33 -13 -50 -71 -67
-91 -27 -152 -73 -214 -161 -35 -50 -90 -195 -108 -286 -30 -155 -84 -321
-126 -383 -35 -52 -144 -155 -242 -228 -199 -149 -385 -438 -454 -702 -26
-101 -26 -423 0 -510 10 -33 23 -78 29 -100 23 -79 96 -216 164 -305 55 -73
132 -144 254 -234 129 -96 210 -179 251 -262 30 -59 34 -77 34 -144 0 -65 -4
-85 -29 -132 l-29 -56 -38 44 c-25 29 -36 51 -33 62 4 13 3 14 -4 4 -7 -10
-15 -6 -37 20 -43 53 -127 137 -215 218 -192 176 -235 219 -291 288 -33 40
-59 80 -59 88 0 8 -4 14 -10 14 -5 0 -14 10 -21 21 -8 16 -8 20 0 15 6 -4 0
10 -14 30 -14 21 -23 44 -21 51 3 7 0 12 -6 10 -13 -3 -56 147 -65 228 -9 88
-9 345 0 455 9 111 25 229 32 240 3 4 9 36 14 71 5 35 15 78 22 94 6 17 13 37
15 45 7 37 95 210 106 210 5 0 6 5 2 12 -5 7 -2 9 9 5 10 -4 14 -2 11 7 -3 7
6 24 18 38 13 15 50 58 82 97 32 39 63 68 69 64 6 -3 7 -1 3 5 -3 6 -1 16 6
24 7 7 29 31 47 53 19 22 39 39 43 38 4 -2 7 0 6 5 -5 15 30 54 43 47 8 -5 10
-4 5 4 -5 7 4 28 21 49 47 62 103 146 103 156 0 5 6 17 13 25 7 9 26 45 42 81
17 36 34 68 38 71 5 3 8 9 8 13 -3 20 0 26 11 20 7 -5 8 -3 4 5 -10 16 33 133
46 125 6 -4 7 2 3 16 -5 15 -4 20 4 16 6 -4 9 -2 6 6 -7 22 50 153 66 150 11
-3 11 -1 2 9 -14 14 4 62 20 52 6 -4 8 0 4 10 -3 9 0 18 9 21 8 3 14 10 14 15
0 12 38 51 79 80 21 15 39 20 53 16 16 -4 19 -3 10 3 -16 11 70 38 87 27 6 -3
11 -2 11 4 0 5 26 12 58 14 97 6 107 4 110 -21z m1131 -251 c-13 -18 -46 -38
-90 -56 -306 -120 -525 -443 -560 -824 -11 -128 4 -291 36 -385 14 -40 14 -50
4 -57 -20 -12 -27 6 -70 176 -86 343 -73 549 46 740 102 164 259 282 515 387
137 56 148 58 119 19z m-59 -109 c0 -5 -16 -16 -36 -25 -19 -10 -40 -22 -47
-27 -12 -10 -61 -45 -108 -77 -33 -23 -155 -166 -176 -207 -9 -17 -21 -34 -27
-38 -6 -4 -12 -12 -12 -18 -1 -5 -2 -15 -3 -21 0 -5 -6 -7 -13 -3 -6 4 -8 3
-5 -3 6 -10 -7 -47 -45 -133 -6 -14 -10 -31 -9 -37 1 -7 -2 -13 -7 -13 -5 0
-7 -12 -5 -27 3 -21 2 -24 -5 -14 -8 10 -10 4 -9 -25 0 -21 -3 -82 -7 -134 -6
-64 -4 -126 4 -190 7 -52 12 -111 12 -130 -2 -26 1 -31 8 -20 10 16 10 15 14
-32 1 -7 5 -16 11 -20 5 -4 6 -11 1 -15 -4 -4 -14 1 -22 12 -10 13 -11 21 -4
23 7 3 6 8 -4 16 -24 19 -48 153 -54 295 -3 77 -1 132 4 128 5 -3 10 19 10 49
1 30 7 60 13 67 6 8 9 16 6 19 -9 8 16 68 26 62 5 -3 6 2 3 11 -8 20 25 97 39
88 5 -3 7 0 5 8 -6 16 31 89 44 89 5 0 7 4 4 9 -3 4 4 17 15 27 12 10 27 31
35 46 8 16 19 28 25 28 6 0 7 -5 3 -12 -4 -7 -3 -8 5 -4 6 4 9 12 5 17 -3 5
12 26 34 47 45 43 82 73 82 68 0 -2 16 12 36 30 20 19 39 32 44 29 5 -3 10 -1
12 3 3 10 79 60 91 61 4 1 7 -3 7 -7z m1504 -550 c61 -70 106 -127 171 -221
l58 -84 -1 -125 c-3 -216 -42 -411 -122 -617 -34 -86 -44 -102 -59 -98 -27 7
-111 -32 -111 -51 0 -22 16 -20 73 8 26 13 47 20 47 15 0 -4 -4 -11 -10 -14
-21 -13 -9 -25 24 -25 30 0 43 -9 94 -66 182 -202 154 -389 -72 -483 -87 -36
-221 -73 -356 -98 -119 -22 -523 -25 -640 -5 -233 40 -450 110 -649 212 -171
87 -163 77 -102 138 l51 52 48 -29 c91 -55 304 -124 450 -145 24 -4 57 -16 74
-29 21 -16 42 -21 73 -20 103 4 150 72 86 126 -40 33 -93 42 -132 23 -28 -14
-39 -13 -147 15 -154 39 -197 53 -319 102 l-102 41 7 30 c13 56 6 200 -13 279
-10 43 -33 107 -51 143 l-33 65 29 62 c74 159 76 371 6 537 -5 12 8 19 59 32
136 36 355 153 422 226 l32 34 31 -68 c17 -38 43 -103 57 -144 30 -86 39 -100
62 -100 20 0 204 107 276 160 49 37 135 121 173 169 l19 25 29 -50 c33 -56 94
-201 94 -224 0 -21 20 -40 40 -40 22 0 122 105 158 165 25 42 51 105 68 163 5
17 49 -18 108 -86z m326 -708 c-1 -4 2 -10 7 -13 15 -11 54 -90 70 -143 23
-75 20 -197 -6 -280 -12 -36 -26 -68 -32 -70 -5 -2 -11 -10 -13 -18 -5 -33
-27 -61 -40 -51 -8 7 -12 5 -12 -9 0 -10 5 -16 11 -12 5 3 4 -2 -4 -11 -13
-16 -15 -15 -31 10 -9 16 -24 34 -33 42 -9 7 -14 17 -11 22 3 5 2 8 -3 7 -16
-6 -54 39 -47 55 3 10 1 17 -6 17 -6 0 -8 -4 -5 -10 8 -14 -8 -13 -22 1 -14
14 4 62 20 52 6 -3 7 -1 4 5 -4 5 3 36 15 69 22 56 23 57 29 28 10 -47 10
-119 -1 -135 -5 -8 -10 -13 -11 -10 0 3 -2 15 -3 27 -2 13 -5 26 -9 29 -3 3
-5 -6 -3 -22 3 -30 38 -60 56 -49 5 3 10 19 10 36 0 16 3 29 8 29 4 0 7 47 7
104 0 57 -3 102 -7 100 -13 -8 -13 42 0 96 12 52 15 73 20 145 l2 30 21 -32
c11 -18 20 -35 19 -39z m-2242 -35 c18 -6 29 -16 26 -21 -4 -6 -1 -8 7 -6 20
8 55 -12 40 -22 -9 -5 -8 -9 4 -13 9 -4 13 -3 10 3 -14 23 13 7 49 -30 33 -33
37 -41 27 -54 -8 -9 -18 -13 -24 -9 -6 4 -7 1 -3 -6 6 -9 12 -8 26 4 17 15 19
14 34 -14 9 -17 23 -44 32 -61 8 -16 12 -35 8 -41 -4 -7 -3 -9 3 -6 15 10 45
-135 45 -221 0 -54 -6 -93 -21 -133 -23 -60 -61 -107 -61 -76 0 10 5 17 11 17
5 0 8 4 5 9 -3 4 -2 22 3 38 10 36 -18 218 -43 277 -9 22 -14 46 -11 53 3 9 0
11 -7 7 -8 -5 -9 0 -5 15 3 13 3 20 -1 17 -10 -10 -42 64 -35 81 4 10 2 14 -5
9 -6 -3 -13 2 -17 13 -18 59 -151 159 -215 162 l-25 1 25 8 c37 12 83 11 118
-1z m-57 -87 c38 -20 63 -42 89 -82 71 -105 120 -266 123 -400 2 -96 -8 -142
-39 -180 -23 -26 -32 -30 -77 -30 -158 0 -296 135 -348 340 -30 118 -24 197
21 286 21 41 45 74 60 81 43 22 112 16 171 -15z m438 -618 c14 -12 -19 -1 -35
12 -18 14 -18 14 6 3 14 -6 27 -13 29 -15z m-1 -292 c42 -22 111 -52 152 -68
41 -16 76 -32 78 -36 2 -4 19 -27 38 -52 101 -133 273 -169 388 -81 42 31 47
33 105 28 50 -5 61 -9 57 -22 -18 -62 -31 -127 -66 -323 -22 -122 -40 -234
-40 -249 0 -32 -6 -34 -170 -74 -121 -29 -185 -31 -238 -9 -41 17 -92 61 -92
80 0 7 12 22 28 34 26 21 27 25 27 113 -1 143 -55 294 -151 418 -72 95 -152
144 -263 162 l-69 12 67 53 c36 28 67 52 69 52 1 0 37 -17 80 -38z m474 -166
c53 -12 99 -24 103 -27 8 -9 -58 -39 -87 -39 -33 0 -119 44 -149 76 l-24 27
30 -8 c17 -5 74 -18 127 -29z m-543 -8 c134 -64 248 -270 268 -481 l5 -62
-110 -58 c-116 -61 -189 -89 -287 -112 -64 -14 -225 -31 -225 -23 0 3 -5 30
-11 59 -18 92 -12 341 10 444 24 115 42 156 87 200 47 47 65 54 148 54 52 1
81 -5 115 -21z m969 -81 c17 -24 71 -92 121 -152 50 -60 91 -112 91 -116 0
-12 -108 -108 -156 -139 -52 -33 -151 -73 -163 -66 -18 11 50 516 70 516 3 0
20 -19 37 -43z m-1397 -587 c6 -47 18 -97 25 -112 13 -26 19 -28 74 -28 47 0
60 -3 64 -17 3 -10 10 -38 16 -62 18 -69 59 -151 107 -213 l44 -58 -258 0
-259 0 27 178 c49 317 70 421 117 572 l17 55 7 -115 c4 -63 12 -153 19 -200z
m2287 204 c52 -15 122 -66 143 -106 17 -32 4 -31 -53 1 -51 29 -137 61 -165
61 -25 0 -12 -29 22 -50 49 -31 85 -77 85 -111 0 -37 -8 -36 -47 4 -44 45
-123 87 -170 90 -62 3 -47 -22 40 -70 99 -55 128 -80 107 -93 -25 -16 -52 -11
-104 16 l-48 26 -77 -35 c-114 -52 -166 -61 -304 -54 l-120 6 -76 -46 c-195
-120 -381 -194 -741 -297 -230 -66 -310 -58 -412 45 -45 44 -70 81 -103 153
-25 52 -46 100 -47 107 -2 6 11 13 27 16 125 18 270 65 362 119 49 28 53 29
53 9 0 -29 61 -84 116 -105 74 -27 156 -26 303 5 153 32 463 122 476 138 17
21 107 74 177 107 180 81 404 107 556 64z m-715 -47 c9 -25 -61 -68 -151 -93
-106 -29 -142 -31 -52 -2 36 11 94 40 130 63 36 24 66 44 66 44 1 1 4 -5 7
-12z m865 -166 c23 -20 54 -52 68 -72 30 -44 50 -109 36 -118 -18 -11 -132 0
-132 12 0 7 -11 36 -25 66 -19 41 -23 57 -14 67 6 8 9 31 7 53 -4 44 -3 44 60
-8z m691 3 c69 -31 181 -111 181 -130 0 -11 -17 -14 -85 -14 -74 0 -85 2 -85
18 0 40 -42 72 -118 87 -40 9 -82 21 -92 27 -14 9 -22 10 -31 1 -17 -17 27
-51 91 -70 52 -15 90 -37 90 -54 0 -4 -103 -7 -229 -6 l-230 2 -16 34 c-9 18
-15 35 -13 36 4 4 166 43 273 65 50 10 101 23 115 29 33 13 82 5 149 -25z
m-785 -109 c9 -14 19 -38 22 -53 l6 -29 -244 -7 c-133 -4 -267 -9 -295 -12
-35 -4 -53 -2 -53 5 0 6 16 11 36 11 63 0 171 30 228 65 l55 33 38 -19 c20
-10 55 -19 76 -19 37 0 97 26 97 42 0 16 18 7 34 -17z m-658 -67 c26 -12 29
-18 29 -59 l0 -47 -74 -6 c-111 -9 -197 -8 -185 3 17 17 179 119 190 120 7 1
25 -5 40 -11z m842 -89 l-11 -32 -356 7 c-323 5 -357 8 -369 23 -12 17 5 18
325 23 186 3 357 6 380 8 l42 2 -11 -31z m3902 -153 c0 -29 2 -66 5 -82 3 -16
2 -35 -3 -42 -7 -10 -336 -13 -1679 -15 l-1670 -2 -1 47 c0 26 -10 68 -21 93
l-20 45 1597 3 c878 1 1641 3 1695 5 l97 2 0 -54z m-5257 -38 c-7 -29 -16 -96
-20 -148 l-7 -95 -11 61 c-11 61 -34 108 -64 131 -9 6 -41 14 -71 18 l-55 7
110 38 c61 21 115 39 121 39 8 1 7 -15 -3 -51z m76 -43 c0 -31 -3 -55 -9 -55
-11 0 -13 52 -4 88 4 12 7 22 9 22 1 0 3 -25 4 -55z m-673 -60 l91 0 -9 -27
c-23 -65 -114 -127 -206 -142 -97 -15 -458 -25 -641 -17 l-194 8 -29 32 c-15
17 -28 35 -28 39 0 4 15 16 33 28 73 47 92 58 100 59 4 0 11 5 15 10 4 6 138
11 356 12 192 2 351 5 354 7 2 3 18 2 36 -2 17 -4 72 -7 122 -7z m5538 -119
c4 -24 4 -79 0 -122 l-7 -77 -96 7 c-53 3 -729 6 -1502 6 l-1406 0 -7 84 c-4
46 -11 98 -16 115 l-9 31 1519 0 1518 0 6 -44z"/>
<path d="M2377 8559 c4 -13 8 -18 11 -10 2 7 -1 18 -6 23 -8 8 -9 4 -5 -13z"/>
<path d="M2130 8021 c0 -6 4 -13 10 -16 6 -3 7 1 4 9 -7 18 -14 21 -14 7z"/>
<path d="M1644 7389 c-3 -6 -1 -16 5 -22 9 -9 10 -7 5 7 -6 15 -4 17 6 11 9
-5 11 -4 6 3 -9 15 -13 15 -22 1z"/>
<path d="M5302 7448 c-7 -7 -12 -17 -12 -24 0 -26 -83 -94 -142 -115 -42 -16
-62 -29 -69 -46 -12 -31 5 -70 35 -84 20 -10 32 -7 76 17 59 32 91 66 124 133
32 64 42 111 25 122 -18 12 -23 11 -37 -3z"/>
<path d="M4354 7396 c-8 -22 41 -118 87 -170 59 -67 167 -117 218 -101 24 7
36 56 22 83 -6 11 -31 25 -58 32 -97 27 -177 80 -209 143 -16 29 -51 37 -60
13z"/>
<path d="M4521 6884 c-11 -14 -25 -49 -32 -79 -10 -47 -10 -57 5 -79 21 -32
76 -36 105 -7 24 24 37 121 20 153 -24 46 -67 51 -98 12z"/>
<path d="M5134 6875 c-9 -14 -19 -53 -21 -88 -6 -74 8 -97 62 -97 54 0 68 23
62 97 -6 74 -27 113 -62 113 -15 0 -31 -10 -41 -25z"/>
<path d="M4055 6738 c7 -16 75 -52 154 -79 64 -23 71 -23 71 -6 0 17 -143 86
-194 94 -29 5 -35 3 -31 -9z"/>
<path d="M3930 6707 c0 -18 65 -45 126 -54 36 -5 44 -3 44 10 0 16 -60 40
-132 53 -30 5 -38 3 -38 -9z"/>
<path d="M4915 6461 c-79 -45 -135 -136 -135 -219 0 -76 54 -107 108 -62 71
59 144 310 89 310 -6 0 -34 -13 -62 -29z"/>
<path d="M5709 7128 c7 -9 10 -27 7 -40 l-6 -23 12 23 c10 19 8 26 -7 40 -18
16 -18 16 -6 0z"/>
<path d="M5792 6880 c0 -14 2 -19 5 -12 2 6 2 18 0 25 -3 6 -5 1 -5 -13z"/>
<path d="M5655 6670 c3 -5 8 -10 11 -10 2 0 4 5 4 10 0 6 -5 10 -11 10 -5 0
-7 -4 -4 -10z"/>
<path d="M3586 7024 c-4 -9 -4 -19 -1 -22 3 -3 5 1 5 9 1 10 5 8 15 -5 8 -11
15 -16 15 -10 0 5 -7 17 -14 27 -13 16 -14 16 -20 1z"/>
<path d="M3645 6860 c-3 -5 -1 -10 4 -10 6 0 11 5 11 10 0 6 -2 10 -4 10 -3 0
-8 -4 -11 -10z"/>
<path d="M3726 6725 c-3 -9 -6 -24 -5 -33 0 -9 5 -4 10 12 9 32 6 48 -5 21z"/>
<path d="M3696 6645 c-9 -26 -7 -32 5 -12 6 10 9 21 6 23 -2 3 -7 -2 -11 -11z"/>
<path d="M3731 6554 c0 -11 3 -14 6 -6 3 7 2 16 -1 19 -3 4 -6 -2 -5 -13z"/>
<path d="M16916 8840 c-107 -14 -165 -29 -246 -68 -97 -46 -186 -133 -220
-215 -13 -32 -29 -55 -34 -53 -232 106 -386 159 -507 175 -35 4 -121 20 -190
35 -455 95 -855 69 -1158 -75 -135 -64 -210 -118 -312 -228 -106 -113 -172
-222 -220 -364 -63 -185 -73 -352 -33 -527 27 -118 57 -119 100 -3 l29 78 7
-90 c9 -134 32 -192 95 -245 l38 -32 -47 -48 c-142 -147 -170 -399 -67 -601
23 -46 114 -146 140 -154 16 -5 19 -16 19 -69 0 -157 142 -285 380 -345 91
-22 322 -50 430 -52 110 -1 110 1 9 -134 -96 -128 -129 -183 -129 -213 0 -11
10 -34 23 -53 l23 -34 -29 -41 -28 -41 -142 44 c-181 56 -284 66 -367 34 -91
-34 -210 -131 -273 -221 -16 -23 -19 -24 -69 -13 -29 6 -134 45 -233 86 -223
93 -249 100 -355 100 -146 -1 -304 -53 -414 -136 -85 -64 -109 -95 -110 -144
l-1 -38 -235 -12 c-201 -10 -237 -10 -251 3 -27 24 -116 34 -316 34 -180 0
-194 1 -189 18 2 9 17 93 32 185 23 145 29 167 43 160 9 -4 345 -9 748 -11
710 -3 733 -2 770 16 86 45 101 88 127 372 34 356 77 1242 71 1440 -3 109 -26
158 -91 196 l-46 27 -1586 0 c-1167 0 -1598 -4 -1629 -12 -61 -17 -100 -54
-118 -113 -8 -29 -21 -154 -30 -306 -9 -142 -27 -410 -41 -597 -66 -909 -65
-895 -25 -935 16 -16 53 -36 87 -47 53 -16 101 -18 467 -17 370 1 407 0 403
-15 -3 -9 -13 -61 -22 -116 -21 -129 -21 -294 0 -360 9 -27 16 -53 16 -56 0
-4 -213 -9 -472 -11 -360 -4 -480 -8 -500 -18 -41 -19 -61 -82 -56 -174 6
-127 43 -154 209 -155 l96 -1 6 -133 c3 -73 9 -140 12 -149 4 -9 18 -19 33
-24 15 -4 1050 -9 2301 -11 1858 -3 2276 -2 2282 9 5 7 9 29 9 48 1 59 5 61
121 57 57 -2 148 0 202 4 57 4 121 3 150 -2 146 -28 192 -29 737 -21 l565 9
105 -108 c149 -153 194 -181 292 -180 72 1 130 24 169 68 28 32 30 40 26 89
-2 30 -9 60 -15 67 -21 24 35 192 119 359 87 173 174 300 428 622 338 432 451
612 534 856 55 161 70 266 64 455 -6 185 -29 293 -103 479 -76 188 -143 306
-424 741 -136 211 -227 374 -301 537 -124 272 -215 362 -407 404 -81 17 -381
26 -476 14z m501 -93 c39 -13 86 -35 105 -47 82 -56 153 -157 213 -300 15 -36
42 -100 61 -143 20 -42 32 -82 28 -89 -4 -7 -3 -8 4 -4 7 4 21 -12 36 -42 31
-60 116 -197 252 -403 245 -372 355 -597 421 -864 13 -52 17 -112 17 -230 0
-171 -17 -270 -70 -412 -34 -91 -122 -266 -135 -271 -5 -2 -9 -8 -9 -13 0 -28
-177 -276 -370 -519 -33 -41 -97 -124 -143 -184 l-82 -109 -3 44 c-9 112 55
250 183 397 26 30 152 209 186 265 92 148 187 369 228 528 45 177 51 362 16
542 -41 214 -165 452 -436 842 -77 110 -181 280 -223 362 -18 37 -60 121 -91
187 -105 217 -232 336 -428 401 -150 50 -311 43 -467 -21 -60 -24 -138 -71
-168 -101 -25 -24 -23 -13 4 22 74 97 218 167 384 185 41 5 152 7 245 5 150
-2 178 -6 242 -28z m-2881 -979 c0 -104 14 -177 37 -196 7 -6 50 -18 96 -27
153 -31 414 -6 465 45 10 10 36 67 56 127 34 96 39 105 44 78 32 -146 66 -244
88 -251 11 -3 24 -2 29 3 5 5 23 71 40 148 31 140 48 191 49 149 0 -11 16 -71
35 -133 41 -129 50 -138 168 -167 134 -33 435 -6 562 51 49 21 54 22 61 7 15
-35 16 -326 1 -442 -12 -97 -19 -123 -46 -165 -64 -104 -88 -283 -55 -426 9
-39 13 -73 10 -76 -21 -21 -252 -106 -381 -139 l-110 -29 -45 23 c-78 40 -170
12 -191 -58 -10 -33 -9 -43 5 -65 41 -62 120 -69 192 -16 32 22 54 29 119 34
125 11 297 71 431 152 l32 19 25 -30 c15 -16 27 -32 27 -35 0 -10 -94 -78
-182 -132 -163 -101 -319 -153 -529 -178 -137 -16 -598 -6 -732 15 -279 45
-457 165 -457 309 0 63 15 101 79 195 31 45 60 91 66 102 5 11 15 20 22 20 21
0 15 21 -7 27 -11 3 -20 7 -20 8 0 2 -21 72 -46 157 -66 219 -83 307 -90 448
-7 128 8 316 28 355 10 20 121 195 123 195 1 0 1 -46 1 -102z m2059 -788 c11
-18 -6 -50 -26 -50 -22 0 -34 22 -25 45 6 17 42 20 51 5z m-56 -69 c11 -7 12
-20 5 -58 -9 -53 -11 -156 -4 -248 5 -58 4 -60 -21 -63 -22 -3 -28 4 -45 40
-26 58 -26 192 0 268 23 67 36 79 65 61z m-949 -956 c-7 -8 -17 -12 -22 -9 -6
4 -5 10 3 15 22 14 33 10 19 -6z m-874 -499 c130 -35 343 -100 465 -140 130
-42 258 -68 494 -97 203 -25 263 -21 301 16 l24 24 77 -39 c93 -47 208 -78
321 -87 45 -3 82 -8 82 -10 0 -17 -75 -162 -100 -193 -63 -80 -201 -129 -320
-115 -135 16 -372 94 -660 218 -218 93 -208 90 -260 72 -69 -24 -129 -20 -183
15 -26 16 -47 34 -47 39 0 19 -29 19 -67 0 -32 -16 -49 -18 -98 -11 l-60 8 43
22 c43 23 56 52 23 52 -10 0 -43 -18 -72 -40 -40 -30 -63 -40 -91 -40 -21 0
-38 4 -38 9 0 5 21 30 46 55 25 25 50 46 55 46 5 0 9 7 9 15 0 8 -6 15 -13 15
-27 0 -107 -60 -133 -99 -24 -38 -30 -41 -70 -41 -31 0 -44 4 -44 14 0 8 45
57 100 109 55 52 100 98 100 101 0 15 -37 4 -79 -24 -26 -16 -62 -36 -81 -44
-19 -8 -73 -42 -119 -75 -89 -65 -104 -72 -94 -43 25 68 154 211 224 247 94
50 145 54 265 21z m423 -10 c54 -37 125 -64 195 -74 39 -6 43 -9 33 -23 -11
-15 -21 -15 -117 6 -58 12 -127 32 -153 44 l-48 21 16 30 c8 16 17 30 19 30 2
0 27 -15 55 -34z m-1341 -80 c162 -81 311 -146 336 -146 23 0 25 -3 19 -32 -3
-18 -7 -35 -9 -36 -6 -8 -226 -1 -250 8 -14 6 -40 10 -58 10 -18 0 -60 13 -92
30 -70 36 -73 36 -151 9 -64 -21 -114 -22 -120 -3 -2 6 30 36 72 65 101 71
109 79 95 93 -7 7 -19 6 -43 -6 -17 -9 -55 -19 -83 -21 -28 -3 -106 -22 -174
-41 -69 -20 -138 -36 -154 -36 l-29 0 24 26 c33 36 123 79 211 103 53 14 107
20 196 20 l122 1 88 -44z m-705 -153 c-21 -32 -29 -21 -13 17 9 21 15 27 21
19 4 -7 0 -23 -8 -36z m1241 -48 c-4 -8 -13 -15 -21 -15 -13 0 -13 3 -3 15 7
8 16 15 21 15 5 0 6 -7 3 -15z m925 -150 c-4 -10 -210 -15 -256 -7 -13 3 -23
11 -23 19 0 11 7 13 33 7 51 -12 117 -6 151 14 30 18 32 18 65 -3 18 -11 32
-25 30 -30z m162 -65 c14 -8 19 -21 19 -53 l-1 -42 -13 38 c-8 20 -19 44 -26
52 -15 18 -7 19 21 5z m-3334 -24 c881 -1 1604 -4 1607 -7 4 -3 2 -19 -5 -35
-6 -16 -11 -59 -12 -96 l-2 -68 -1610 -2 c-885 -2 -1647 -3 -1692 -3 -70 0
-86 3 -103 21 -29 29 -38 116 -16 168 l16 38 107 -8 c60 -4 829 -8 1710 -8z
m4623 -195 c91 0 179 2 195 4 32 4 80 -29 68 -48 -3 -6 -1 -7 5 -3 14 8 114
-62 106 -75 -3 -5 2 -6 10 -3 26 10 19 -39 -8 -65 -29 -27 -46 -26 -151 13
-117 42 -197 50 -415 40 -238 -11 -472 -11 -522 -1 -36 8 -38 10 -38 47 0 22
-3 40 -7 40 -5 0 -16 14 -25 31 l-18 30 318 -5 c174 -3 391 -5 482 -5z m-3061
-142 c-11 -29 -23 -80 -26 -115 l-6 -63 -1481 -4 c-814 -2 -1503 -7 -1530 -11
l-49 -6 6 67 c4 38 7 94 7 126 l0 57 1549 0 1549 0 -19 -51z"/>
<path d="M15514 7391 c-72 -18 -126 -70 -170 -163 -14 -30 -15 -40 -4 -53 18
-22 43 -18 71 11 13 15 42 40 63 55 33 25 48 29 101 29 70 0 88 12 83 56 -6
49 -77 81 -144 65z"/>
<path d="M14671 7231 c-10 -19 -8 -25 21 -51 48 -44 126 -70 208 -70 78 0 100
13 100 60 0 42 -30 57 -135 64 -49 3 -111 9 -137 12 -40 6 -47 4 -57 -15z"/>
<path d="M15423 6885 c-12 -8 -24 -28 -28 -44 -8 -36 9 -104 31 -122 23 -19
75 -15 90 6 29 39 7 142 -34 164 -27 14 -33 14 -59 -4z"/>
<path d="M14812 6873 c-38 -15 -57 -127 -26 -157 19 -20 64 -21 90 -2 30 23
23 113 -11 144 -27 23 -31 24 -53 15z"/>
<path d="M15751 6780 c-64 -36 -91 -58 -91 -77 0 -7 2 -13 4 -13 13 0 196 103
196 111 0 19 -57 8 -109 -21z"/>
<path d="M15867 6768 c-68 -31 -83 -55 -33 -51 33 2 138 54 144 71 7 21 -40
13 -111 -20z"/>
<path d="M14540 6749 c0 -16 92 -79 115 -79 28 0 15 30 -24 54 -51 32 -91 43
-91 25z"/>
<path d="M15315 6520 c-104 -51 -209 -80 -286 -80 -55 0 -69 -3 -69 -15 0 -9
12 -18 28 -21 21 -4 35 -19 56 -61 50 -94 129 -133 208 -100 93 39 172 160
166 254 -4 60 -19 63 -103 23z"/>
</g>
</svg>
