<?xml version="1.0" standalone="no"?>
<!DOCTYPE svg PUBLIC "-//W3C//DTD SVG 20010904//EN"
 "http://www.w3.org/TR/2001/REC-SVG-20010904/DTD/svg10.dtd">
<svg version="1.0" xmlns="http://www.w3.org/2000/svg"
 width="1920.000000pt" height="1080.000000pt" viewBox="0 0 1920.000000 1080.000000"
 preserveAspectRatio="xMidYMid meet">

<g transform="translate(0.000000,1080.000000) scale(0.100000,-0.100000)"
fill="#000000" stroke="none">
<path d="M220 10555 c-4 -50 0 -347 5 -355 4 -7 163 -10 487 -10 382 1 483 -2
490 -12 4 -7 8 -496 8 -1086 l0 -1072 170 2 171 3 -1 1078 c0 878 2 1078 13
1083 7 2 231 6 497 7 l485 2 0 180 0 180 -1162 3 c-640 1 -1163 0 -1163 -3z"/>
<path d="M8930 10553 c-159 -62 -267 -185 -300 -343 -13 -64 -9 -1812 5 -1870
4 -19 16 -48 26 -65 10 -16 26 -45 35 -63 21 -42 109 -121 165 -149 72 -35
119 -44 214 -41 l90 3 3 160 c1 88 0 170 -3 181 -4 19 -13 22 -75 26 -60 3
-74 8 -98 31 l-27 27 -3 828 c-2 611 1 834 9 855 16 39 57 57 128 57 75 0 73
-7 69 205 l-3 160 -110 2 c-60 1 -117 -1 -125 -4z"/>
<path d="M9680 9523 c0 -1012 3 -1127 32 -1213 16 -48 93 -164 127 -193 15
-13 59 -39 97 -58 l69 -34 815 -3 c728 -2 821 -1 874 13 133 37 233 129 288
265 l23 55 3 1103 3 1102 -171 0 -170 0 0 -1045 c0 -1136 2 -1087 -55 -1113
-33 -15 -1490 -17 -1529 -2 -14 5 -33 21 -42 35 -16 24 -17 106 -17 1075 l-1
1050 -173 0 -173 0 0 -1037z"/>
<path d="M12836 10535 c-114 -47 -206 -147 -249 -272 l-27 -78 0 -1082 0
-1083 170 0 170 0 0 445 0 445 820 0 820 0 0 -445 0 -445 175 0 175 0 0 1069
c0 1168 2 1126 -58 1249 -32 67 -121 151 -197 188 l-60 29 -840 2 -840 3 -59
-25z m1671 -363 c13 -7 25 -26 28 -45 3 -17 4 -214 3 -437 l-3 -405 -802 -3
c-719 -2 -803 0 -817 14 -14 14 -16 64 -16 417 1 431 1 431 52 465 24 16 84
17 779 12 581 -4 759 -8 776 -18z"/>
<path d="M15420 9290 l0 -1270 170 0 170 0 0 535 0 535 23 5 c12 3 393 4 847
3 l825 -3 3 -537 2 -538 170 0 170 0 0 1270 0 1270 -170 0 -170 0 -2 -537 -3
-538 -845 0 -845 0 -3 538 -2 537 -170 0 -170 0 0 -1270z"/>
<path d="M18332 10379 l3 -184 66 -3 c55 -2 71 -7 100 -31 l34 -29 0 -841 0
-841 -27 -27 c-23 -23 -38 -28 -100 -32 l-73 -6 -3 -183 -2 -184 112 4 c95 2
121 7 163 27 128 63 217 166 259 301 7 24 11 327 14 930 3 891 3 895 -19 965
-39 128 -124 229 -238 282 -48 22 -74 27 -174 31 l-117 4 2 -183z"/>
<path d="M2700 10055 c0 -8 4 -23 9 -33 6 -9 21 -48 34 -87 44 -125 99 -279
123 -342 13 -34 24 -65 24 -70 0 -4 15 -48 34 -98 19 -49 46 -124 61 -165 15
-41 30 -84 35 -95 11 -28 54 -149 79 -220 11 -33 32 -91 46 -130 15 -38 34
-95 44 -125 11 -30 24 -68 31 -85 7 -16 16 -39 21 -50 4 -11 15 -40 23 -65 8
-25 34 -97 57 -160 22 -63 44 -126 47 -140 2 -14 11 -34 18 -45 8 -11 14 -28
14 -37 0 -10 4 -26 9 -36 5 -9 12 -25 15 -34 5 -16 21 -18 146 -18 l140 0 19
43 c11 23 29 69 41 102 12 33 27 74 35 90 7 17 25 64 40 105 16 41 31 80 35
85 4 6 17 39 29 75 12 36 31 83 41 105 10 22 28 67 41 100 12 33 27 74 34 90
7 17 25 62 40 100 15 39 31 79 35 90 5 11 16 42 26 68 9 26 21 50 25 53 5 3 9
16 9 29 0 13 4 26 9 29 5 3 12 18 15 32 4 14 15 45 25 68 10 22 25 59 34 81
44 116 64 159 75 163 6 2 12 -1 12 -7 0 -6 11 -34 25 -63 14 -28 25 -59 25
-68 0 -9 4 -20 9 -25 6 -6 28 -56 51 -113 22 -57 45 -111 50 -120 4 -9 21 -48
36 -87 14 -38 37 -94 50 -123 13 -29 24 -58 24 -65 0 -7 4 -17 8 -22 5 -6 21
-41 37 -80 15 -38 38 -94 51 -123 13 -29 24 -58 24 -65 0 -7 4 -17 9 -22 4 -6
16 -32 26 -60 10 -27 21 -54 25 -60 3 -5 19 -41 34 -80 28 -71 58 -143 95
-226 11 -26 23 -59 27 -73 l6 -26 138 0 c143 0 151 2 163 45 3 11 24 72 47
135 23 63 61 174 85 245 58 171 70 203 78 211 4 4 7 18 7 31 0 13 4 31 9 41
23 46 41 95 41 112 0 10 4 21 9 24 5 3 11 18 14 33 4 23 82 258 104 313 16 40
106 299 113 325 4 17 20 62 35 100 15 39 31 84 35 100 5 17 31 94 58 172 35
100 46 145 39 152 -12 12 -313 16 -341 5 -9 -3 -16 -11 -16 -18 0 -6 -14 -47
-31 -91 -17 -44 -34 -93 -39 -110 -7 -23 -68 -200 -113 -325 -3 -8 -13 -37
-22 -65 -10 -27 -21 -59 -26 -70 -4 -11 -27 -76 -50 -145 -23 -69 -50 -150
-61 -180 -10 -30 -22 -64 -27 -75 -5 -11 -21 -56 -36 -100 -44 -131 -57 -165
-66 -165 -9 0 -28 40 -84 175 -21 50 -45 108 -55 130 -10 22 -30 69 -45 105
-15 36 -36 85 -47 110 -11 25 -35 82 -54 127 -18 45 -39 97 -47 115 -8 18 -31
74 -51 123 -42 100 -52 124 -90 208 -14 32 -26 62 -26 67 0 6 -4 18 -10 28
-11 21 -55 120 -63 145 -6 15 -24 17 -195 17 -167 0 -191 -2 -204 -17 -15 -18
-30 -54 -145 -348 -29 -77 -61 -155 -69 -172 -8 -18 -21 -51 -29 -73 -8 -22
-21 -55 -28 -73 -8 -17 -22 -52 -32 -77 -9 -25 -26 -65 -36 -90 -10 -25 -39
-97 -64 -160 -96 -248 -133 -334 -143 -338 -9 -3 -27 38 -88 211 -27 76 -27
77 -68 175 -14 35 -26 71 -26 80 0 9 -7 26 -15 36 -8 11 -15 26 -15 33 0 7 -8
32 -19 56 -10 23 -26 65 -36 92 -9 28 -20 59 -25 70 -5 11 -16 40 -24 65 -25
75 -63 175 -97 255 -9 22 -29 76 -65 180 -14 39 -32 76 -41 83 -12 8 -66 12
-185 12 -143 0 -168 -2 -168 -15z"/>
<path d="M6597 10060 c-161 -21 -293 -148 -350 -335 -12 -43 -14 -147 -13
-700 2 -513 5 -656 15 -680 50 -113 81 -162 133 -210 31 -29 72 -61 90 -70 87
-44 95 -45 705 -45 713 0 695 -3 826 127 72 72 115 156 128 252 6 43 9 314 6
694 -3 552 -5 628 -20 671 -41 119 -126 216 -235 268 l-67 33 -580 2 c-319 0
-606 -2 -638 -7z m1156 -378 c48 -42 48 -41 45 -656 l-3 -578 -33 -29 -32 -29
-536 0 c-560 0 -567 1 -602 43 -9 11 -12 161 -12 602 0 623 0 627 47 651 16 7
189 11 565 11 479 0 545 -1 561 -15z"/>
<path d="M7440 6050 l0 -290 2160 0 2160 0 0 290 0 290 -2160 0 -2160 0 0
-290z"/>
<path d="M8150 3795 c-7 -8 -18 -15 -24 -15 -23 0 -86 -102 -86 -139 0 -11 -6
-35 -14 -53 -8 -18 -20 -53 -27 -78 -7 -25 -16 -49 -21 -55 -4 -5 -8 -18 -8
-30 0 -11 -7 -33 -15 -49 -8 -15 -15 -37 -15 -47 0 -11 -4 -27 -10 -37 -14
-26 -60 -168 -60 -186 0 -9 -4 -24 -9 -34 -24 -48 -41 -95 -41 -116 0 -12 -3
-25 -6 -29 -7 -6 -37 -96 -98 -292 -21 -66 -44 -136 -51 -155 -7 -19 -16 -48
-21 -65 -7 -22 -21 -36 -56 -52 -25 -13 -62 -42 -82 -66 -61 -75 -66 -105 -66
-442 0 -404 14 -475 113 -612 44 -62 130 -130 175 -139 50 -10 59 -29 65 -139
7 -139 50 -228 141 -293 97 -70 -33 -65 1661 -65 1721 -1 1587 -7 1680 75 93
82 125 151 132 283 6 110 15 129 65 139 17 3 55 24 85 46 52 40 133 137 133
162 0 7 7 22 15 32 8 11 15 29 15 41 0 12 4 25 8 31 22 24 32 159 32 442 0
278 -2 305 -20 355 -26 69 -73 123 -130 150 -33 16 -47 30 -54 52 -5 17 -14
46 -21 65 -7 19 -30 89 -51 155 -61 196 -91 286 -98 292 -3 4 -6 17 -6 29 0
21 -17 68 -41 116 -5 10 -9 25 -9 34 0 18 -46 160 -60 186 -6 10 -10 26 -10
37 0 10 -7 32 -15 47 -8 16 -15 38 -15 49 0 12 -4 25 -8 30 -5 6 -14 30 -21
55 -7 25 -19 60 -27 78 -8 18 -14 42 -14 53 0 23 -24 72 -51 108 -28 35 -84
61 -134 61 -39 0 -50 -6 -97 -49 l-53 -49 1 -104 c1 -111 19 -367 36 -513 18
-161 22 -275 8 -275 -6 0 -47 33 -91 73 -69 62 -126 104 -164 121 -74 34 -118
39 -350 43 -132 2 -249 6 -261 8 -13 3 -28 21 -40 47 -23 51 -115 147 -164
172 -127 64 -273 64 -400 0 -49 -25 -140 -120 -170 -178 l-25 -48 -200 1
c-194 1 -336 -9 -372 -27 -69 -34 -95 -50 -146 -91 -33 -25 -80 -65 -105 -88
-26 -24 -51 -43 -56 -43 -9 0 -3 150 12 285 18 150 35 404 36 513 l1 104 -53
49 c-50 46 -56 49 -106 49 -35 0 -58 -5 -66 -15z m60 -282 c0 -38 -5 -97 -10
-133 -10 -75 -27 -261 -36 -405 -6 -107 -30 -335 -36 -340 -2 -2 -21 -18 -43
-35 -22 -17 -62 -51 -90 -76 -84 -74 -158 -134 -167 -134 -11 0 -10 27 2 64
12 36 85 261 160 496 29 91 57 169 61 174 5 6 9 20 9 33 0 13 4 31 9 41 12 23
52 141 58 172 2 14 8 34 13 45 5 11 19 53 31 93 11 39 25 72 30 72 5 0 9 -30
9 -67z m2804 45 c3 -7 12 -40 22 -73 9 -33 20 -64 24 -70 4 -5 10 -23 13 -40
6 -34 44 -151 58 -177 5 -10 9 -28 9 -41 0 -13 4 -27 9 -33 4 -5 32 -83 61
-174 75 -235 148 -460 160 -496 12 -37 13 -64 1 -64 -5 0 -35 24 -68 53 -33
28 -84 72 -114 97 -120 100 -125 107 -133 190 -4 41 -9 91 -11 110 -2 19 -6
73 -9 120 -10 161 -26 353 -36 419 -13 88 -13 191 0 191 6 0 12 -6 14 -12z
m-1285 -533 c43 -26 94 -88 115 -140 36 -84 24 -191 -30 -277 -105 -166 -353
-152 -442 25 -37 73 -46 147 -27 215 27 97 111 189 186 205 13 3 54 4 91 2 50
-3 76 -10 107 -30z m-561 -160 c3 -2 6 -38 7 -77 2 -97 15 -175 31 -189 8 -6
14 -22 14 -34 0 -12 7 -28 15 -35 8 -7 15 -19 15 -26 0 -12 -83 -14 -506 -14
-297 0 -504 4 -502 9 5 15 366 320 406 343 20 12 57 24 82 27 55 7 430 4 438
-4z m1359 -6 c27 -9 181 -129 251 -196 7 -7 34 -29 60 -49 63 -51 122 -106
122 -116 0 -4 -227 -8 -505 -8 -359 0 -505 3 -505 11 0 10 18 48 41 89 14 24
16 31 29 106 7 40 10 93 8 118 -4 32 -2 49 7 54 21 11 454 4 492 -9z m513
-559 c0 -10 -35 -35 -80 -57 -25 -13 -76 -41 -115 -62 -38 -22 -92 -51 -120
-65 -27 -14 -75 -40 -105 -57 -30 -17 -93 -52 -140 -77 -47 -25 -98 -54 -115
-64 -16 -9 -48 -27 -70 -38 -46 -24 -136 -73 -215 -117 -64 -36 -151 -83 -198
-107 -28 -14 -67 -17 -282 -17 -215 0 -254 3 -282 17 -47 24 -134 71 -198 107
-79 44 -169 93 -215 117 -22 11 -53 29 -70 38 -16 10 -68 39 -115 64 -47 25
-110 60 -140 77 -30 17 -77 43 -105 57 -150 77 -269 147 -278 161 -4 7 -15 13
-22 13 -8 0 -15 3 -15 8 0 4 648 7 1440 7 792 0 1440 -2 1440 -5z m-3246 -107
c-1 -7 -2 -215 -2 -463 -2 -371 -4 -450 -16 -450 -29 0 -82 48 -113 104 -54
95 -63 164 -63 474 0 288 2 300 50 339 20 17 145 13 144 -4z m3756 4 c48 -39
50 -51 50 -339 0 -310 -9 -379 -63 -474 -31 -55 -84 -104 -113 -104 -11 0 -14
86 -16 458 -2 251 -2 460 0 465 5 12 126 7 142 -6z m-3500 -173 c41 -58 110
-153 153 -212 44 -59 84 -115 89 -126 6 -11 14 -25 19 -30 15 -20 148 -200
171 -234 13 -18 33 -47 46 -65 13 -18 63 -88 112 -157 214 -300 212 -298 248
-305 18 -3 41 -3 50 0 20 7 105 111 230 280 49 66 107 145 129 175 22 30 52
67 66 83 l26 27 211 0 211 0 30 -32 c17 -18 38 -44 47 -58 31 -45 232 -314
290 -386 70 -88 84 -97 131 -89 31 5 44 17 99 93 70 98 230 321 262 367 25 37
207 286 219 301 4 5 13 19 19 30 5 11 45 67 89 126 43 58 112 154 153 212 68
97 100 126 100 94 2 -177 -2 -1153 -5 -1176 -6 -46 -33 -89 -78 -126 l-39 -31
-1528 0 -1528 0 -39 31 c-21 16 -48 50 -60 74 -22 43 -22 43 -23 642 0 483 2
598 13 598 7 0 46 -48 87 -106z m250 -11 c0 -5 10 -13 23 -19 12 -6 56 -29 97
-51 41 -22 113 -61 160 -85 47 -25 101 -55 120 -66 19 -12 67 -37 105 -57 39
-20 93 -49 120 -65 28 -16 82 -45 120 -65 102 -52 149 -81 153 -93 2 -6 -37
-64 -87 -129 -49 -65 -112 -147 -138 -183 -27 -36 -55 -65 -63 -65 -8 0 -56
59 -107 130 -52 72 -124 172 -161 224 -37 51 -74 103 -82 116 -8 13 -72 102
-142 199 -124 172 -150 216 -129 216 6 0 11 -3 11 -7z m2614 -15 c-7 -23 -83
-130 -96 -136 -5 -2 -8 -8 -8 -12 0 -5 -35 -57 -77 -115 -43 -59 -85 -117 -93
-130 -8 -13 -45 -65 -82 -116 -37 -52 -109 -152 -160 -223 -51 -71 -98 -131
-105 -133 -10 -4 -53 44 -108 121 -11 16 -57 77 -103 137 -46 61 -82 115 -80
121 4 12 51 40 153 93 39 20 93 49 120 65 28 16 82 45 120 65 39 20 93 50 120
66 28 16 59 34 70 39 11 6 27 14 35 18 8 5 24 14 36 20 12 6 61 32 110 58 49
26 99 52 111 58 13 6 23 14 23 19 0 4 5 7 11 7 6 0 8 -9 3 -22z"/>
<path d="M9540 2833 c-45 -57 1 -161 65 -147 42 8 66 35 72 80 7 56 -24 94
-77 94 -30 0 -43 -6 -60 -27z"/>
</g>
</svg>
