<?xml version="1.0" standalone="no"?>
<!DOCTYPE svg PUBLIC "-//W3C//DTD SVG 20010904//EN"
 "http://www.w3.org/TR/2001/REC-SVG-20010904/DTD/svg10.dtd">
<svg version="1.0" xmlns="http://www.w3.org/2000/svg"
 width="1920.000000pt" height="335.000000pt" viewBox="0 0 1920.000000 335.000000"
 preserveAspectRatio="xMidYMid meet">

<g transform="translate(0.000000,335.000000) scale(0.100000,-0.100000)"
fill="#000000" stroke="none">
<path d="M220 3105 c-4 -50 0 -347 5 -355 4 -7 163 -10 487 -10 382 1 483 -2
490 -12 4 -7 8 -496 8 -1086 l0 -1072 170 2 171 3 -1 1078 c0 878 2 1078 13
1083 7 2 231 6 497 7 l485 2 0 180 0 180 -1162 3 c-640 1 -1163 0 -1163 -3z"/>
<path d="M8930 3103 c-159 -62 -267 -185 -300 -343 -13 -64 -9 -1812 5 -1870
4 -19 16 -48 26 -65 10 -16 26 -45 35 -63 21 -42 109 -121 165 -149 72 -35
119 -44 214 -41 l90 3 3 160 c1 88 0 170 -3 181 -4 19 -13 22 -75 26 -60 3
-74 8 -98 31 l-27 27 -3 828 c-2 611 1 834 9 855 16 39 57 57 128 57 75 0 73
-7 69 205 l-3 160 -110 2 c-60 1 -117 -1 -125 -4z"/>
<path d="M9680 2073 c0 -1012 3 -1127 32 -1213 16 -48 93 -164 127 -193 15
-13 59 -39 97 -58 l69 -34 815 -3 c728 -2 821 -1 874 13 133 37 233 129 288
265 l23 55 3 1103 3 1102 -171 0 -170 0 0 -1045 c0 -1136 2 -1087 -55 -1113
-33 -15 -1490 -17 -1529 -2 -14 5 -33 21 -42 35 -16 24 -17 106 -17 1075 l-1
1050 -173 0 -173 0 0 -1037z"/>
<path d="M12836 3085 c-114 -47 -206 -147 -249 -272 l-27 -78 0 -1082 0 -1083
170 0 170 0 0 445 0 445 820 0 820 0 0 -445 0 -445 175 0 175 0 0 1069 c0
1168 2 1126 -58 1249 -32 67 -121 151 -197 188 l-60 29 -840 2 -840 3 -59 -25z
m1671 -363 c13 -7 25 -26 28 -45 3 -17 4 -214 3 -437 l-3 -405 -802 -3 c-719
-2 -803 0 -817 14 -14 14 -16 64 -16 417 1 431 1 431 52 465 24 16 84 17 779
12 581 -4 759 -8 776 -18z"/>
<path d="M15420 1840 l0 -1270 170 0 170 0 0 535 0 535 23 5 c12 3 393 4 847
3 l825 -3 3 -538 2 -537 170 0 170 0 0 1270 0 1270 -170 0 -170 0 -2 -537 -3
-538 -845 0 -845 0 -3 538 -2 537 -170 0 -170 0 0 -1270z"/>
<path d="M18332 2929 l3 -184 66 -3 c55 -2 71 -7 100 -31 l34 -29 0 -841 0
-841 -27 -27 c-23 -23 -38 -28 -100 -32 l-73 -6 -3 -183 -2 -184 112 4 c95 2
121 7 163 27 128 63 217 166 259 301 7 24 11 327 14 930 3 891 3 895 -19 965
-39 128 -124 229 -238 282 -48 22 -74 27 -174 31 l-117 4 2 -183z"/>
<path d="M2700 2605 c0 -8 4 -23 9 -33 6 -9 21 -48 34 -87 44 -125 99 -279
123 -342 13 -34 24 -65 24 -70 0 -4 15 -48 34 -98 19 -49 46 -124 61 -165 15
-41 30 -84 35 -95 11 -28 54 -149 79 -220 11 -33 32 -91 46 -130 15 -38 34
-95 44 -125 11 -30 24 -68 31 -85 7 -16 16 -39 21 -50 4 -11 15 -40 23 -65 8
-25 34 -97 57 -160 22 -63 44 -126 47 -140 2 -14 11 -34 18 -45 8 -11 14 -28
14 -37 0 -10 4 -26 9 -36 5 -9 12 -25 15 -34 5 -16 21 -18 146 -18 l140 0 19
43 c11 23 29 69 41 102 12 33 27 74 35 90 7 17 25 64 40 105 16 41 31 80 35
85 4 6 17 39 29 75 12 36 31 83 41 105 10 22 28 67 41 100 12 33 27 74 34 90
7 17 25 62 40 100 15 39 31 79 35 90 5 11 16 42 26 68 9 26 21 50 25 53 5 3 9
16 9 29 0 13 4 26 9 29 5 3 12 18 15 32 4 14 15 45 25 68 10 22 25 59 34 81
44 116 64 159 75 163 6 2 12 -1 12 -7 0 -6 11 -34 25 -63 14 -28 25 -59 25
-68 0 -9 4 -20 9 -25 6 -6 28 -56 51 -113 22 -57 45 -111 50 -120 4 -9 21 -48
36 -87 14 -38 37 -94 50 -123 13 -29 24 -58 24 -65 0 -7 4 -17 8 -22 5 -6 21
-41 37 -80 15 -38 38 -94 51 -123 13 -29 24 -58 24 -65 0 -7 4 -17 9 -22 4 -6
16 -32 26 -60 10 -27 21 -54 25 -60 3 -5 19 -41 34 -80 28 -71 58 -143 95
-226 11 -26 23 -59 27 -73 l6 -26 138 0 c143 0 151 2 163 45 3 11 24 72 47
135 23 63 61 174 85 245 58 171 70 203 78 211 4 4 7 18 7 31 0 13 4 31 9 41
23 46 41 95 41 112 0 10 4 21 9 24 5 3 11 18 14 33 4 23 82 258 104 313 16 40
106 299 113 325 4 17 20 62 35 100 15 39 31 84 35 100 5 17 31 94 58 172 35
100 46 145 39 152 -12 12 -313 16 -341 5 -9 -3 -16 -11 -16 -18 0 -6 -14 -47
-31 -91 -17 -44 -34 -93 -39 -110 -7 -23 -68 -200 -113 -325 -3 -8 -13 -37
-22 -65 -10 -27 -21 -59 -26 -70 -4 -11 -27 -76 -50 -145 -23 -69 -50 -150
-61 -180 -10 -30 -22 -64 -27 -75 -5 -11 -21 -56 -36 -100 -44 -131 -57 -165
-66 -165 -9 0 -28 40 -84 175 -21 50 -45 108 -55 130 -10 22 -30 69 -45 105
-15 36 -36 85 -47 110 -11 25 -35 82 -54 127 -18 45 -39 97 -47 115 -8 18 -31
74 -51 123 -42 100 -52 124 -90 208 -14 32 -26 62 -26 67 0 6 -4 18 -10 28
-11 21 -55 120 -63 145 -6 15 -24 17 -195 17 -167 0 -191 -2 -204 -17 -15 -18
-30 -54 -145 -348 -29 -77 -61 -155 -69 -172 -8 -18 -21 -51 -29 -73 -8 -22
-21 -55 -28 -73 -8 -17 -22 -52 -32 -77 -9 -25 -26 -65 -36 -90 -10 -25 -39
-97 -64 -160 -96 -248 -133 -334 -143 -338 -9 -3 -27 38 -88 211 -27 76 -27
77 -68 175 -14 35 -26 71 -26 80 0 9 -7 26 -15 36 -8 11 -15 26 -15 33 0 7 -8
32 -19 56 -10 23 -26 65 -36 92 -9 28 -20 59 -25 70 -5 11 -16 40 -24 65 -25
75 -63 175 -97 255 -9 22 -29 76 -65 180 -14 39 -32 76 -41 83 -12 8 -66 12
-185 12 -143 0 -168 -2 -168 -15z"/>
<path d="M6597 2610 c-161 -21 -293 -148 -350 -335 -12 -43 -14 -147 -13 -700
2 -513 5 -656 15 -680 50 -113 81 -162 133 -210 31 -29 72 -61 90 -70 87 -44
95 -45 705 -45 713 0 695 -3 826 127 72 72 115 156 128 252 6 43 9 314 6 694
-3 552 -5 628 -20 671 -41 119 -126 216 -235 268 l-67 33 -580 2 c-319 0 -606
-2 -638 -7z m1156 -378 c48 -42 48 -41 45 -656 l-3 -578 -33 -29 -32 -29 -536
0 c-560 0 -567 1 -602 43 -9 11 -12 161 -12 602 0 623 0 627 47 651 16 7 189
11 565 11 479 0 545 -1 561 -15z"/>
</g>
</svg>
